<?xml version="1.0" encoding="UTF-8"?>
<svg version="1.1" xmlns="http://www.w3.org/2000/svg" width="157" height="148">
<path d="M0 0 C51.81 0 103.62 0 157 0 C157 48.84 157 97.68 157 148 C105.19 148 53.38 148 0 148 C0 99.16 0 50.32 0 0 Z " fill="#F8F8F8" transform="translate(0,0)"/>
<path d="M0 0 C51.81 0 103.62 0 157 0 C157 48.84 157 97.68 157 148 C105.19 148 53.38 148 0 148 C0 99.16 0 50.32 0 0 Z M9.76010132 8.96090698 C7.33575259 13.14692809 7.30432492 16.44578833 7.36889648 21.20898438 C7.36174118 22.12827225 7.35458588 23.04756012 7.34721375 23.9947052 C7.33032878 27.02822829 7.34972845 30.06027315 7.37109375 33.09375 C7.37026504 35.2045504 7.36780556 37.31535073 7.36378479 39.42614746 C7.36092692 43.84793545 7.37562737 48.26921688 7.40307617 52.69091797 C7.43715854 58.35723888 7.43114042 64.02265398 7.4124136 69.68901825 C7.40184222 74.04709413 7.41078277 78.40495944 7.42579842 82.76301575 C7.43097965 84.85219192 7.43049915 86.94139009 7.42425346 89.03056335 C7.41879972 91.95119467 7.43918195 94.87053179 7.46655273 97.79101562 C7.46002686 98.65350418 7.45350098 99.51599274 7.44677734 100.40461731 C7.50958291 104.34829474 7.74110323 106.54579261 9.72956848 110.03434753 C12.35412788 112.30659033 13.43538912 112.63238465 16.86035156 112.65942383 C17.82104553 112.67906693 18.7817395 112.69871002 19.77154541 112.71894836 C20.80084167 112.71501572 21.83013794 112.71108307 22.890625 112.70703125 C24.48025055 112.72971321 24.48025055 112.72971321 26.10198975 112.75285339 C29.48487474 112.7958213 32.86686899 112.80457754 36.25 112.8125 C38.54429467 112.8356371 40.83856804 112.86100078 43.1328125 112.88867188 C48.75521669 112.95161388 54.37727152 112.98647601 60 113 C59.22485352 114.69474284 58.44970703 116.38948568 57.67456055 118.08422852 C56.62719441 121.05877868 56.80957996 123.88980608 57 127 C55.9275 126.9175 54.855 126.835 53.75 126.75 C50.08017352 126.72326905 50.08017352 126.72326905 47.5625 128.375 C45.1475269 131.92301525 45.1475269 131.92301525 46 141 C67.45 141 88.9 141 111 141 C111 137.7 111 134.4 111 131 C107.53393477 127.38397457 107.53393477 127.38397457 102.875 126.9375 C101.92625 126.958125 100.9775 126.97875 100 127 C100.061875 125.989375 100.12375 124.97875 100.1875 123.9375 C100.02656419 120.55784798 99.81607575 119.15693203 98.48828125 116.25390625 C97.99714844 115.18011719 97.50601563 114.10632813 97 113 C97.57771652 112.99857498 98.15543304 112.99714996 98.75065613 112.99568176 C104.76955502 112.9759787 110.78744058 112.92169247 116.8059082 112.84741211 C119.05127693 112.82423055 121.29675442 112.80983605 123.54223633 112.80444336 C126.77233673 112.7951553 130.00072609 112.75416577 133.23046875 112.70703125 C134.73386055 112.71293022 134.73386055 112.71293022 136.2676239 112.71894836 C137.20822159 112.69930527 138.14881927 112.67966217 139.11791992 112.65942383 C139.94176682 112.65276199 140.76561371 112.64610016 141.61442566 112.63923645 C145.32098049 111.6460312 146.73644254 110.07506695 149 107 C149.71110792 103.91929891 149.6737399 100.92599768 149.63110352 97.77514648 C149.63825882 96.85425232 149.64541412 95.93335815 149.65278625 94.98455811 C149.66966964 91.94622922 149.650274 88.90937642 149.62890625 85.87109375 C149.62973491 83.75789772 149.63219417 81.64470176 149.63621521 79.5315094 C149.63907288 75.10552541 149.62437334 70.68004756 149.59692383 66.25415039 C149.56282061 60.57876357 149.56886668 54.90428061 149.5875864 49.22885036 C149.59814991 44.86652583 149.58922476 40.50441195 149.57420158 36.14210701 C149.56901596 34.04931323 149.56950616 31.95649749 149.57574654 29.86370659 C149.58119161 26.94047521 149.56084677 24.01854243 149.53344727 21.09545898 C149.53997314 20.22937515 149.54649902 19.36329132 149.55322266 18.47096252 C149.49369431 13.6206607 149.49369431 13.6206607 147.09165955 9.49403381 C143.77224654 7.12303836 141.90558562 6.86983409 137.85783386 6.84609985 C136.76847031 6.83749939 135.67910675 6.82889893 134.55673218 6.82003784 C133.35618195 6.81577789 132.15563171 6.81151794 130.91870117 6.80712891 C129.65847641 6.79895142 128.39825165 6.79077393 127.09983826 6.78234863 C122.91423686 6.75612629 118.72862544 6.740821 114.54296875 6.7265625 C113.10240485 6.72120294 111.66184101 6.71582543 110.22127724 6.71043015 C104.22923112 6.68880128 98.2371877 6.6700643 92.24511242 6.65880775 C83.65594775 6.64256656 75.06723532 6.60938544 66.47824115 6.55240691 C60.439956 6.51371438 54.40179185 6.49417593 48.36338598 6.48888719 C44.75638174 6.48523275 41.14985982 6.47320298 37.54298973 6.44078445 C33.51821344 6.40512839 29.49440976 6.40907279 25.46948242 6.41650391 C24.27500488 6.40009857 23.08052734 6.38369324 21.84985352 6.36679077 C17.02544529 6.40334653 13.93839044 6.43205126 9.76010132 8.96090698 Z " fill="#FDFDFD" transform="translate(0,0)"/>
<path d="M0 0 C1.26066284 -0.00554901 2.52132568 -0.01109802 3.82019043 -0.01681519 C7.27082497 -0.03104363 10.72066075 -0.01402191 14.17121887 0.00946999 C17.78569209 0.02960331 21.40013293 0.02369815 25.01464844 0.0213623 C31.08411809 0.02141585 37.15327615 0.04115659 43.22265625 0.07324219 C50.23518862 0.11013403 57.24731291 0.1189175 64.25992966 0.11194468 C71.01159921 0.10563477 77.76312914 0.11640293 84.51477051 0.13591003 C87.38547763 0.14407507 90.2561133 0.14679524 93.12683105 0.1452179 C97.13684613 0.14417404 101.14632537 0.16837252 105.15625 0.1953125 C106.3460144 0.1923819 107.53577881 0.18945129 108.76159668 0.18643188 C109.85508423 0.19778168 110.94857178 0.20913147 112.07519531 0.2208252 C113.02275696 0.22455391 113.9703186 0.22828262 114.94659424 0.23212433 C118.10487283 0.69192069 120.00344317 1.75800365 122.578125 3.61523438 C124.25977082 6.97852601 123.75294483 10.78319846 123.77099609 14.48364258 C123.78326233 15.86191727 123.78326233 15.86191727 123.79577637 17.26803589 C123.82064648 20.31735578 123.83714998 23.3666291 123.8515625 26.41601562 C123.85688618 27.45603415 123.86220985 28.49605267 123.86769485 29.5675869 C123.89443267 35.07166177 123.9138061 40.5757139 123.92822266 46.07983398 C123.94487768 51.76976044 123.98966113 57.4591085 124.0405941 63.14881611 C124.07422116 67.51969583 124.0857951 71.89043746 124.09144974 76.26143456 C124.0981741 78.35903535 124.11342675 80.45662669 124.13734055 82.55410194 C124.16889896 85.48943088 124.16904282 88.4231891 124.16162109 91.35864258 C124.17802643 92.22584427 124.19443176 93.09304596 124.21133423 93.98652649 C124.16695576 98.27221907 123.95625521 100.10051929 121.3467865 103.65255737 C118.44047994 105.71280961 117.19393749 106.24637336 113.69604492 106.2746582 C112.75544724 106.2943013 111.81484955 106.3139444 110.8457489 106.33418274 C109.3423571 106.32828377 109.3423571 106.32828377 107.80859375 106.32226562 C106.77245438 106.33738693 105.736315 106.35250824 104.66877747 106.36808777 C101.36750569 106.41098972 98.06714787 106.41980553 94.765625 106.42773438 C92.5240642 106.45087662 90.28252517 106.47624138 88.04101562 106.50390625 C82.55337677 106.56678304 77.06609543 106.60169753 71.578125 106.61523438 C72.31482422 108.22591797 72.31482422 108.22591797 73.06640625 109.86914062 C74.73296192 113.51281745 74.82375942 116.60320557 74.578125 120.61523438 C75.485625 120.57398437 76.393125 120.53273438 77.328125 120.49023438 C80.47453426 120.61125012 81.99968698 120.89627569 84.578125 122.61523438 C85.578125 124.61523438 85.578125 124.61523438 85.578125 134.61523438 C64.128125 134.61523438 42.678125 134.61523438 20.578125 134.61523438 C20.578125 124.61523438 20.578125 124.61523438 22.140625 121.99023438 C25.40054596 120.1513046 27.89924694 120.33224376 31.578125 120.61523438 C31.4853125 119.09929687 31.4853125 119.09929687 31.390625 117.55273438 C31.60530014 113.04455651 32.7238876 110.66924947 34.578125 106.61523438 C33.98565979 106.61380936 33.39319458 106.61238434 32.78277588 106.61091614 C26.61805889 106.5912346 20.45433414 106.53699461 14.29003906 106.46264648 C11.98933022 106.4394447 9.68851484 106.42506569 7.38769531 106.41967773 C4.08070308 106.41040446 0.77539171 106.36944725 -2.53125 106.32226562 C-3.56054626 106.32619827 -4.58984253 106.33013092 -5.65032959 106.33418274 C-6.61102356 106.31453964 -7.57171753 106.29489655 -8.56152344 106.2746582 C-9.40535583 106.26799637 -10.24918823 106.26133453 -11.11859131 106.25447083 C-14.65907551 105.27187083 -15.61560744 103.78414245 -17.421875 100.61523438 C-17.99259091 97.54106514 -17.97892932 94.52626149 -17.95532227 91.40625 C-17.96393784 90.48696213 -17.97255341 89.56767426 -17.98143005 88.62052917 C-18.00409979 85.58722639 -17.99734963 82.55484664 -17.98828125 79.52148438 C-17.99351611 77.41068243 -17.99979209 75.29988282 -18.00706482 73.18908691 C-18.01747071 68.76738469 -18.0129043 64.34600425 -17.99829102 59.92431641 C-17.98109696 54.25790749 -18.00460569 48.59251197 -18.03978062 42.92621613 C-18.06173938 38.5681486 -18.06031688 34.21032418 -18.0520153 29.85221863 C-18.05119507 27.76302478 -18.05807214 25.67381321 -18.07278633 23.58467102 C-18.09020522 20.66388603 -18.07571196 17.7449301 -18.05297852 14.82421875 C-18.06467072 13.96173019 -18.07636292 13.09924164 -18.08840942 12.21061707 C-18.02586578 8.26150714 -17.67215682 6.04637456 -15.65879822 2.578125 C-10.60714719 -0.485228 -5.79956499 -0.06465234 0 0 Z M-7.421875 10.61523438 C-7.421875 38.66523437 -7.421875 66.71523437 -7.421875 95.61523438 C32.508125 95.61523438 72.438125 95.61523438 113.578125 95.61523438 C113.578125 67.56523438 113.578125 39.51523437 113.578125 10.61523438 C73.648125 10.61523438 33.718125 10.61523438 -7.421875 10.61523438 Z " fill="#EBEBEB" transform="translate(25.421875,6.384765625)"/>
<path d="M0 0 C1.26066284 -0.00554901 2.52132568 -0.01109802 3.82019043 -0.01681519 C7.27082497 -0.03104363 10.72066075 -0.01402191 14.17121887 0.00946999 C17.78569209 0.02960331 21.40013293 0.02369815 25.01464844 0.0213623 C31.08411809 0.02141585 37.15327615 0.04115659 43.22265625 0.07324219 C50.23518862 0.11013403 57.24731291 0.1189175 64.25992966 0.11194468 C71.01159921 0.10563477 77.76312914 0.11640293 84.51477051 0.13591003 C87.38547763 0.14407507 90.2561133 0.14679524 93.12683105 0.1452179 C97.13684613 0.14417404 101.14632537 0.16837252 105.15625 0.1953125 C106.3460144 0.1923819 107.53577881 0.18945129 108.76159668 0.18643188 C109.85508423 0.19778168 110.94857178 0.20913147 112.07519531 0.2208252 C113.02275696 0.22455391 113.9703186 0.22828262 114.94659424 0.23212433 C118.10487283 0.69192069 120.00344317 1.75800365 122.578125 3.61523438 C124.25977082 6.97852601 123.75294483 10.78319846 123.77099609 14.48364258 C123.78326233 15.86191727 123.78326233 15.86191727 123.79577637 17.26803589 C123.82064648 20.31735578 123.83714998 23.3666291 123.8515625 26.41601562 C123.85688618 27.45603415 123.86220985 28.49605267 123.86769485 29.5675869 C123.89443267 35.07166177 123.9138061 40.5757139 123.92822266 46.07983398 C123.94487768 51.76976044 123.98966113 57.4591085 124.0405941 63.14881611 C124.07422116 67.51969583 124.0857951 71.89043746 124.09144974 76.26143456 C124.0981741 78.35903535 124.11342675 80.45662669 124.13734055 82.55410194 C124.16889896 85.48943088 124.16904282 88.4231891 124.16162109 91.35864258 C124.17802643 92.22584427 124.19443176 93.09304596 124.21133423 93.98652649 C124.16695576 98.27221907 123.95625521 100.10051929 121.3467865 103.65255737 C118.44047994 105.71280961 117.19393749 106.24637336 113.69604492 106.2746582 C112.75544724 106.2943013 111.81484955 106.3139444 110.8457489 106.33418274 C109.3423571 106.32828377 109.3423571 106.32828377 107.80859375 106.32226562 C106.77245438 106.33738693 105.736315 106.35250824 104.66877747 106.36808777 C101.36750569 106.41098972 98.06714787 106.41980553 94.765625 106.42773438 C92.5240642 106.45087662 90.28252517 106.47624138 88.04101562 106.50390625 C82.55337677 106.56678304 77.06609543 106.60169753 71.578125 106.61523438 C72.31482422 108.22591797 72.31482422 108.22591797 73.06640625 109.86914062 C74.73296192 113.51281745 74.82375942 116.60320557 74.578125 120.61523438 C75.485625 120.57398437 76.393125 120.53273438 77.328125 120.49023438 C80.47453426 120.61125012 81.99968698 120.89627569 84.578125 122.61523438 C85.578125 124.61523438 85.578125 124.61523438 85.578125 134.61523438 C64.128125 134.61523438 42.678125 134.61523438 20.578125 134.61523438 C20.578125 124.61523438 20.578125 124.61523438 22.140625 121.99023438 C25.40054596 120.1513046 27.89924694 120.33224376 31.578125 120.61523438 C31.4853125 119.09929687 31.4853125 119.09929687 31.390625 117.55273438 C31.60530014 113.04455651 32.7238876 110.66924947 34.578125 106.61523438 C33.98565979 106.61380936 33.39319458 106.61238434 32.78277588 106.61091614 C26.61805889 106.5912346 20.45433414 106.53699461 14.29003906 106.46264648 C11.98933022 106.4394447 9.68851484 106.42506569 7.38769531 106.41967773 C4.08070308 106.41040446 0.77539171 106.36944725 -2.53125 106.32226562 C-3.56054626 106.32619827 -4.58984253 106.33013092 -5.65032959 106.33418274 C-6.61102356 106.31453964 -7.57171753 106.29489655 -8.56152344 106.2746582 C-9.40535583 106.26799637 -10.24918823 106.26133453 -11.11859131 106.25447083 C-14.65907551 105.27187083 -15.61560744 103.78414245 -17.421875 100.61523438 C-17.99259091 97.54106514 -17.97892932 94.52626149 -17.95532227 91.40625 C-17.96393784 90.48696213 -17.97255341 89.56767426 -17.98143005 88.62052917 C-18.00409979 85.58722639 -17.99734963 82.55484664 -17.98828125 79.52148438 C-17.99351611 77.41068243 -17.99979209 75.29988282 -18.00706482 73.18908691 C-18.01747071 68.76738469 -18.0129043 64.34600425 -17.99829102 59.92431641 C-17.98109696 54.25790749 -18.00460569 48.59251197 -18.03978062 42.92621613 C-18.06173938 38.5681486 -18.06031688 34.21032418 -18.0520153 29.85221863 C-18.05119507 27.76302478 -18.05807214 25.67381321 -18.07278633 23.58467102 C-18.09020522 20.66388603 -18.07571196 17.7449301 -18.05297852 14.82421875 C-18.06467072 13.96173019 -18.07636292 13.09924164 -18.08840942 12.21061707 C-18.02586578 8.26150714 -17.67215682 6.04637456 -15.65879822 2.578125 C-10.60714719 -0.485228 -5.79956499 -0.06465234 0 0 Z M-13.22543526 4.89709282 C-15.38050511 7.99187055 -14.83595713 11.8027021 -14.81005859 15.4453125 C-14.81531555 16.34801376 -14.82057251 17.25071503 -14.82598877 18.18077087 C-14.83921015 21.16951721 -14.83044307 24.15773247 -14.8203125 27.14648438 C-14.82233262 29.22009382 -14.82524354 31.29370257 -14.82901001 33.36730957 C-14.83343626 37.71515663 -14.82699254 42.06281892 -14.81298828 46.41064453 C-14.79589632 51.98964393 -14.80573588 57.5682104 -14.82370567 63.14719391 C-14.83453532 67.42965977 -14.83110092 71.71202264 -14.8233223 75.99449158 C-14.82131802 78.05183462 -14.82378749 80.10918696 -14.83076096 82.16651917 C-14.83836189 85.03965094 -14.82679022 87.91207716 -14.81005859 90.78515625 C-14.81613129 91.63927597 -14.82220398 92.49339569 -14.82846069 93.37339783 C-14.88414739 97.58721562 -14.88414739 97.58721562 -13.22543526 101.33337593 C-10.78200523 103.070014 -9.17077052 102.99260896 -6.18395996 102.9961853 C-5.09874557 103.00464478 -4.01353119 103.01310425 -2.89543152 103.02182007 C-1.70468521 103.01574738 -0.5139389 103.00967468 0.71289062 103.00341797 C1.96672043 103.00867493 3.22055023 103.01393188 4.51237488 103.01934814 C7.95256167 103.03030177 11.39220833 103.0277174 14.83236504 103.01821089 C18.43044645 103.01062183 22.0285046 103.0176578 25.62658691 103.02236938 C31.66923167 103.02782915 37.71176647 103.02062959 43.75439453 103.00634766 C50.74304914 102.99002063 57.73144119 102.99530899 64.72008944 103.01182687 C70.71762227 103.02543551 76.71507602 103.02736448 82.7126193 103.01951087 C86.29590885 103.01483089 89.87907493 103.01421831 93.46235657 103.02412033 C97.4561282 103.03438555 101.44960514 103.02016266 105.44335938 103.00341797 C106.63410568 103.00949066 107.82485199 103.01556335 109.05168152 103.02182007 C110.1368959 103.0133606 111.22211029 103.00490112 112.34020996 102.9961853 C113.28483849 102.99505423 114.22946701 102.99392315 115.20272064 102.9927578 C117.61558699 102.78958277 117.61558699 102.78958277 119.38168526 101.33337593 C121.53675511 98.2385982 120.99220713 94.42776665 120.96630859 90.78515625 C120.97156555 89.88245499 120.97682251 88.97975372 120.98223877 88.04969788 C120.99546015 85.06095154 120.98669307 82.07273628 120.9765625 79.08398438 C120.97858262 77.01037493 120.98149354 74.93676618 120.98526001 72.86315918 C120.98968626 68.51531212 120.98324254 64.16764983 120.96923828 59.81982422 C120.95214632 54.24082482 120.96198588 48.66225835 120.97995567 43.08327484 C120.99078532 38.80080898 120.98735092 34.51844611 120.9795723 30.23597717 C120.97756802 28.17863413 120.98003749 26.12128179 120.98701096 24.06394958 C120.99461189 21.19081781 120.98304022 18.31839159 120.96630859 15.4453125 C120.97541763 14.16413292 120.97541763 14.16413292 120.98471069 12.85707092 C121.04039739 8.64325313 121.04039739 8.64325313 119.38168526 4.89709282 C116.93825523 3.16045475 115.32702052 3.23785979 112.34020996 3.23428345 C111.25499557 3.22582397 110.16978119 3.2173645 109.05168152 3.20864868 C107.86093521 3.21472137 106.6701889 3.22079407 105.44335938 3.22705078 C104.18952957 3.22179382 102.93569977 3.21653687 101.64387512 3.21112061 C98.20368833 3.20016698 94.76404167 3.20275135 91.32388496 3.21225786 C87.72580355 3.21984692 84.1277454 3.21281095 80.52966309 3.20809937 C74.48701833 3.2026396 68.44448353 3.20983916 62.40185547 3.22412109 C55.41320086 3.24044812 48.42480881 3.23515976 41.43616056 3.21864188 C35.43862773 3.20503324 29.44117398 3.20310427 23.4436307 3.21095788 C19.86034115 3.21563786 16.27717507 3.21625044 12.69389343 3.20634842 C8.7001218 3.1960832 4.70664486 3.21030609 0.71289062 3.22705078 C-1.07322884 3.21794174 -1.07322884 3.21794174 -2.89543152 3.20864868 C-4.5232531 3.22133789 -4.5232531 3.22133789 -6.18395996 3.23428345 C-7.12858849 3.23541452 -8.07321701 3.2365456 -9.04647064 3.23771095 C-11.45933699 3.44088598 -11.45933699 3.44088598 -13.22543526 4.89709282 Z " fill="#1E1E1E" transform="translate(25.421875,6.384765625)"/>
<path d="M0 0 C39.93 0 79.86 0 121 0 C121 28.05 121 56.1 121 85 C81.07 85 41.14 85 0 85 C0 56.95 0 28.9 0 0 Z M3 3 C3 29.07 3 55.14 3 82 C40.95 82 78.9 82 118 82 C118 55.93 118 29.86 118 3 C80.05 3 42.1 3 3 3 Z " fill="#0E0E0E" transform="translate(18,17)"/>
<path d="M0 0 C9.57 0 19.14 0 29 0 C33.66666667 9.33333333 33.66666667 9.33333333 33 15 C32.34 15.99 31.68 16.98 31 18 C31.77085938 17.97679687 32.54171875 17.95359375 33.3359375 17.9296875 C34.33882812 17.91164062 35.34171875 17.89359375 36.375 17.875 C37.37273437 17.85179687 38.37046875 17.82859375 39.3984375 17.8046875 C42 18 42 18 44 20 C44 21.98 44 23.96 44 26 C24.53 26 5.06 26 -15 26 C-15 20 -15 20 -13 18 C-10.3984375 17.8046875 -10.3984375 17.8046875 -7.375 17.875 C-5.87066406 17.90207031 -5.87066406 17.90207031 -4.3359375 17.9296875 C-3.56507812 17.95289063 -2.79421875 17.97609375 -2 18 C-2.66 17.01 -3.32 16.02 -4 15 C-4.78344563 8.34071211 -3.31368799 6.62737597 0 0 Z " fill="#F0F0F0" transform="translate(64,112)"/>
<path d="M0 0 C2.31 0 4.62 0 7 0 C7.33 0.99 7.66 1.98 8 3 C9.98 3 11.96 3 14 3 C14 3.66 14 4.32 14 5 C14.99 5.33 15.98 5.66 17 6 C16.9071875 7.175625 16.9071875 7.175625 16.8125 8.375 C16.874375 9.24125 16.93625 10.1075 17 11 C17.99 11.66 18.98 12.32 20 13 C20.375 16.5 20.375 16.5 20 20 C19.01 20.66 18.02 21.32 17 22 C16.26656572 25.06556598 16.26656572 25.06556598 16 28 C15.34 28 14.68 28 14 28 C14 28.66 14 29.32 14 30 C12.02 30 10.04 30 8 30 C7.67 30.99 7.34 31.98 7 33 C4.69 33 2.38 33 0 33 C-0.495 31.515 -0.495 31.515 -1 30 C-1.928125 30.061875 -2.85625 30.12375 -3.8125 30.1875 C-7 30 -7 30 -8.875 28.875 C-10.4682099 26.21965017 -10.20214032 24.03210482 -10 21 C-10.99 20.67 -11.98 20.34 -13 20 C-13 17.69 -13 15.38 -13 13 C-12.01 12.67 -11.02 12.34 -10 12 C-10.061875 11.071875 -10.12375 10.14375 -10.1875 9.1875 C-10 6 -10 6 -8.875 4.125 C-6.21965017 2.5317901 -4.03210482 2.79785968 -1 3 C-0.67 2.01 -0.34 1.02 0 0 Z " fill="#131313" transform="translate(44,48)"/>
<path d="M0 0 C2.31 0 4.62 0 7 0 C7.33 0.99 7.66 1.98 8 3 C9.98 3 11.96 3 14 3 C14 3.66 14 4.32 14 5 C14.99 5.33 15.98 5.66 17 6 C16.9071875 7.175625 16.9071875 7.175625 16.8125 8.375 C16.874375 9.24125 16.93625 10.1075 17 11 C17.99 11.66 18.98 12.32 20 13 C20.375 16.5 20.375 16.5 20 20 C19.01 20.66 18.02 21.32 17 22 C16.26656572 25.06556598 16.26656572 25.06556598 16 28 C15.34 28 14.68 28 14 28 C14 28.66 14 29.32 14 30 C12.02 30 10.04 30 8 30 C7.67 30.99 7.34 31.98 7 33 C4.69 33 2.38 33 0 33 C-0.495 31.515 -0.495 31.515 -1 30 C-1.928125 30.061875 -2.85625 30.12375 -3.8125 30.1875 C-7 30 -7 30 -8.875 28.875 C-10.4682099 26.21965017 -10.20214032 24.03210482 -10 21 C-10.99 20.67 -11.98 20.34 -13 20 C-13 17.69 -13 15.38 -13 13 C-12.01 12.67 -11.02 12.34 -10 12 C-10.061875 11.071875 -10.12375 10.14375 -10.1875 9.1875 C-10 6 -10 6 -8.875 4.125 C-6.21965017 2.5317901 -4.03210482 2.79785968 -1 3 C-0.67 2.01 -0.34 1.02 0 0 Z M2 3 C2 3.66 2 4.32 2 5 C-0.64 5.66 -3.28 6.32 -6 7 C-6.66 9.64 -7.32 12.28 -8 15 C-8.66 15 -9.32 15 -10 15 C-10 15.99 -10 16.98 -10 18 C-9.01 18.495 -9.01 18.495 -8 19 C-7.26924352 21.3140622 -6.59861742 23.64828869 -6 26 C-3.36 26.66 -0.72 27.32 2 28 C2 28.66 2 29.32 2 30 C2.99 30 3.98 30 5 30 C5.33 29.34 5.66 28.68 6 28 C8.3140622 27.26924352 10.64828869 26.59861742 13 26 C13.33 23.36 13.66 20.72 14 18 C14.99 18 15.98 18 17 18 C17 17.01 17 16.02 17 15 C16.34 14.67 15.68 14.34 15 14 C14.26924352 11.6859378 13.59861742 9.35171131 13 7 C10.36 6.34 7.72 5.68 5 5 C5 4.34 5 3.68 5 3 C4.01 3 3.02 3 2 3 Z " fill="#191919" transform="translate(44,48)"/>
<path d="M0 0 C30.69 0 61.38 0 93 0 C93.495 1.485 93.495 1.485 94 3 C62.65 3 31.3 3 -1 3 C-0.67 2.01 -0.34 1.02 0 0 Z " fill="#1B1B1B" transform="translate(32,28)"/>
<path d="M0 0 C25.08 0 50.16 0 76 0 C75.67 0.99 75.34 1.98 75 3 C50.25 3 25.5 3 0 3 C0 2.01 0 1.02 0 0 Z " fill="#1B1B1B" transform="translate(50,88)"/>
<path d="M0 0 C0.99 0 1.98 0 3 0 C3 0.66 3 1.32 3 2 C5.64 2.66 8.28 3.32 11 4 C11.28875 5.134375 11.5775 6.26875 11.875 7.4375 C12.24625 8.613125 12.6175 9.78875 13 11 C13.66 11.33 14.32 11.66 15 12 C15 12.99 15 13.98 15 15 C14.01 15 13.02 15 12 15 C11.67 17.64 11.34 20.28 11 23 C9.865625 23.28875 8.73125 23.5775 7.5625 23.875 C6.386875 24.24625 5.21125 24.6175 4 25 C3.67 25.66 3.34 26.32 3 27 C2.01 27 1.02 27 0 27 C0 26.34 0 25.68 0 25 C-2.64 24.34 -5.28 23.68 -8 23 C-8.28875 21.865625 -8.5775 20.73125 -8.875 19.5625 C-9.24625 18.386875 -9.6175 17.21125 -10 16 C-10.66 15.67 -11.32 15.34 -12 15 C-12 14.01 -12 13.02 -12 12 C-11.34 12 -10.68 12 -10 12 C-9.34 9.36 -8.68 6.72 -8 4 C-5.36 3.34 -2.72 2.68 0 2 C0 1.34 0 0.68 0 0 Z M-7 10 C-7.83333333 13.5 -7.83333333 13.5 -7 17 C-4.40783917 20.69186542 -2.95850936 21.82883761 1.5 22.625 C5.95850936 21.82883761 7.40783917 20.69186542 10 17 C10.83333333 13.5 10.83333333 13.5 10 10 C7.40783917 6.30813458 5.95850936 5.17116239 1.5 4.375 C-2.95850936 5.17116239 -4.40783917 6.30813458 -7 10 Z " fill="#E5E5E5" transform="translate(46,51)"/>
<path d="M0 0 C20.13 0 40.26 0 61 0 C60.67 0.99 60.34 1.98 60 3 C40.2 3 20.4 3 0 3 C0 2.01 0 1.02 0 0 Z " fill="#1A1A1A" transform="translate(65,78)"/>
<path d="M0 0 C19.47 0 38.94 0 59 0 C59 0.99 59 1.98 59 3 C39.2 3 19.4 3 -1 3 C-0.67 2.01 -0.34 1.02 0 0 Z " fill="#161616" transform="translate(32,38)"/>
<path d="M0 0 C18.15 0 36.3 0 55 0 C55 0.99 55 1.98 55 3 C36.85 3 18.7 3 0 3 C0 2.01 0 1.02 0 0 Z " fill="#111111" transform="translate(71,68)"/>
<path d="M0 0 C17.82 0 35.64 0 54 0 C54 0.99 54 1.98 54 3 C36.18 3 18.36 3 0 3 C0 2.01 0 1.02 0 0 Z " fill="#121212" transform="translate(72,58)"/>
<path d="M0 0 C2.5 1.625 2.5 1.625 4 4 C4 7.58086372 3.35711105 9.46433342 1.375 12.4375 C-1 14 -1 14 -4.5625 14.0625 C-8 13 -8 13 -10 10.75 C-11.15949287 7.5613946 -11.16582954 6.16439447 -10 3 C-7.55040876 -0.94656366 -4.2984107 -0.527875 0 0 Z " fill="#191919" transform="translate(82,118)"/>
<path d="M0 0 C3.0625 0.3125 3.0625 0.3125 5 1.4375 C6.0625 3.3125 6.0625 3.3125 5.875 6.375 C5.0625 9.3125 5.0625 9.3125 3.0625 11.3125 C0.0625 11.625 0.0625 11.625 -2.9375 11.3125 C-5.23913882 7.86004176 -5.28240322 6.36511287 -4.9375 2.3125 C-2.9375 0.3125 -2.9375 0.3125 0 0 Z " fill="#EFEFEF" transform="translate(46.9375,58.6875)"/>
<path d="M0 0 C0.99 0 1.98 0 3 0 C3 0.66 3 1.32 3 2 C5.64 2.66 8.28 3.32 11 4 C11 5.32 11 6.64 11 8 C10.01 8.33 9.02 8.66 8 9 C7.649375 8.505 7.29875 8.01 6.9375 7.5 C3.93965306 5.17908624 1.67355767 5.54886134 -2 6 C-4.8942612 8.05644875 -5.81588125 9.3248979 -6.75 12.75 C-6.8325 13.4925 -6.915 14.235 -7 15 C-7.66 14.34 -8.32 13.68 -9 13 C-9.33 13.66 -9.66 14.32 -10 15 C-10.66 15 -11.32 15 -12 15 C-12 14.01 -12 13.02 -12 12 C-11.34 12 -10.68 12 -10 12 C-9.34 9.36 -8.68 6.72 -8 4 C-5.36 3.34 -2.72 2.68 0 2 C0 1.34 0 0.68 0 0 Z " fill="#D6D6D6" transform="translate(46,51)"/>
<path d="M0 0 C1.125 3.75 1.125 3.75 0 6 C-0.13357453 9.67329964 -0.1671568 12.49852959 1 16 C-2.63 16.33 -6.26 16.66 -10 17 C-10.66 19.31 -11.32 21.62 -12 24 C-12.33 24 -12.66 24 -13 24 C-13.144375 23.21625 -13.28875 22.4325 -13.4375 21.625 C-13.87798925 19.03578982 -13.87798925 19.03578982 -15 17 C-13.4375 15 -13.4375 15 -11 13 C-7.25 12.75 -7.25 12.75 -4 13 C-4.061875 11.4221875 -4.061875 11.4221875 -4.125 9.8125 C-4.00789964 6.24093907 -3.65280072 4.12195691 -2 1 C-1.34 0.67 -0.68 0.34 0 0 Z " fill="#090909" transform="translate(61,114)"/>
<path d="M0 0 C9.24 0 18.48 0 28 0 C28 0.99 28 1.98 28 3 C18.76 3 9.52 3 0 3 C0 2.01 0 1.02 0 0 Z " fill="#181818" transform="translate(63,48)"/>
<path d="M0 0 C7.71428571 4 7.71428571 4 9 8 C7.90241493 8.84198307 6.79664683 9.67330671 5.6875 10.5 C5.07261719 10.9640625 4.45773438 11.428125 3.82421875 11.90625 C2 13 2 13 -1 13 C0.20381448 10.50638429 1.45428722 8.31856917 3 6 C1.68 5.01 0.36 4.02 -1 3 C-0.67 2.01 -0.34 1.02 0 0 Z " fill="#181818" transform="translate(117,38)"/>
<path d="M0 0 C-0.56371414 3.26954202 -1.49962266 4.82575883 -4 7 C-3.01 7.6496875 -3.01 7.6496875 -2 8.3125 C-1.34 8.869375 -0.68 9.42625 0 10 C0 10.99 0 11.98 0 13 C-3.87132028 12.42647107 -6.08172796 10.51295648 -9 8 C-8.875 6.25 -8.875 6.25 -8 4 C-2.77777778 0 -2.77777778 0 0 0 Z " fill="#121212" transform="translate(106,38)"/>
<path d="M0 0 C2 3 2 3 3.25 5.5 C5.41161686 8.58802409 7.57117757 9.55227497 11 11 C11 11.99 11 12.98 11 14 C7.7 13.01 4.4 12.02 1 11 C-0.66015625 3.28515625 -0.66015625 3.28515625 -1 1 C-0.67 0.67 -0.34 0.34 0 0 Z " fill="#ECECEC" transform="translate(37,63)"/>
<path d="M0 0 C2.5 0.125 2.5 0.125 3.5 1.125 C3.6875 3.5625 3.6875 3.5625 3.5 6.125 C2.84 6.785 2.18 7.445 1.5 8.125 C-2.03571429 7.58928571 -2.03571429 7.58928571 -3.5 6.125 C-3.625 3.625 -3.625 3.625 -3.5 1.125 C-2.5 0.125 -2.5 0.125 0 0 Z " fill="#F2F2F2" transform="translate(78.5,120.875)"/>
<path d="M0 0 C-1 3 -1 3 -3 4.875 C-5.27060644 7.28751935 -5.64008575 8.76077175 -6 12 C-6.66 11.34 -7.32 10.68 -8 10 C-8.33 10.66 -8.66 11.32 -9 12 C-9.66 12 -10.32 12 -11 12 C-11 11.01 -11 10.02 -11 9 C-10.34 9 -9.68 9 -9 9 C-8.34 6.36 -7.68 3.72 -7 1 C-3 0 -3 0 0 0 Z " fill="#E2E2E2" transform="translate(45,54)"/>
<path d="M0 0 C3 1 3 1 4.6875 4.25 C5.83944321 7.54126631 6.31025348 9.5872117 6 13 C3 12 3 12 2.05078125 10.29296875 C1.80714844 9.59816406 1.56351562 8.90335938 1.3125 8.1875 C1.06113281 7.50042969 0.80976562 6.81335937 0.55078125 6.10546875 C0 4 0 4 0 0 Z " fill="#151515" transform="translate(108,38)"/>
<path d="M0 0 C4.29 0 8.58 0 13 0 C12.67 0.99 12.34 1.98 12 3 C8.37 3 4.74 3 1 3 C0.67 2.01 0.34 1.02 0 0 Z " fill="#232323" transform="translate(31,88)"/>
<path d="M0 0 C0.33 0 0.66 0 1 0 C1 2.64 1 5.28 1 8 C-1.31 8.33 -3.62 8.66 -6 9 C-6.66 11.97 -7.32 14.94 -8 18 C-8.33 18 -8.66 18 -9 18 C-9.144375 17.21625 -9.28875 16.4325 -9.4375 15.625 C-9.87798925 13.03578982 -9.87798925 13.03578982 -11 11 C-9.4375 9 -9.4375 9 -7 7 C-3.25 6.75 -3.25 6.75 0 7 C0 4.69 0 2.38 0 0 Z " fill="#3A3A3A" transform="translate(57,120)"/>
<path d="M0 0 C2.475 0.99 2.475 0.99 5 2 C4.360625 2.226875 3.72125 2.45375 3.0625 2.6875 C0.72806339 3.85250896 0.72806339 3.85250896 0.25 6.625 C0.1675 7.40875 0.085 8.1925 0 9 C-0.66 7.68 -1.32 6.36 -2 5 C-2.66 5.99 -3.32 6.98 -4 8 C-3.50168276 4.31245243 -2.89932357 2.39509338 0 0 Z " fill="#3A3A3A" transform="translate(75,118)"/>
<path d="M0 0 C0.33 0.66 0.66 1.32 1 2 C-0.2065625 2.433125 -0.2065625 2.433125 -1.4375 2.875 C-4.1326468 3.73262568 -4.1326468 3.73262568 -5 6 C-5.99 5.67 -6.98 5.34 -8 5 C-7.34 5 -6.68 5 -6 5 C-6 4.01 -6 3.02 -6 2 C-6.66 1.67 -7.32 1.34 -8 1 C-2.25 -1.125 -2.25 -1.125 0 0 Z " fill="#D6D6D6" transform="translate(54,72)"/>
<path d="M0 0 C1.65 0 3.3 0 5 0 C5 1.32 5 2.64 5 4 C4.01 4.33 3.02 4.66 2 5 C1.34 4.34 0.68 3.68 0 3 C0 2.01 0 1.02 0 0 Z " fill="#DCDCDC" transform="translate(52,55)"/>
</svg>
