<?xml version="1.0" encoding="UTF-8"?>
<svg version="1.1" xmlns="http://www.w3.org/2000/svg" width="196" height="197">
<path d="M0 0 C2.45850474 1.1266976 4.81290753 2.28197008 7.1875 3.5625 C7.84733887 3.91602539 8.50717773 4.26955078 9.18701172 4.63378906 C14.98367213 7.82795371 19.99938376 11.67219394 25 16 C25.825 16.63292969 26.65 17.26585938 27.5 17.91796875 C43.99266446 31.65326587 54.47066722 54.93883989 57 76 C58.78014884 97.27998488 54.87130141 115.66702616 43.27734375 133.67578125 C41.91044711 136.16294791 41.67495931 137.63478275 41.625 140.4375 C41.23277792 145.43624524 39.55332458 147.53334187 36 151 C32.51556578 152.74221711 28.80112955 152.58675154 25 152 C21.92530477 150.29748281 19.59386746 148.18773492 18 145 C17.65282008 139.70550628 17.47578282 136.25336556 21 132 C25.28983676 128.44556383 28.6855098 128.89685872 34 129 C45.78860622 108.57023098 50.13413962 88.4807475 44.03125 65.32421875 C37.22987324 43.19676665 24.70263017 26.39635718 4.6875 14.4375 C4.1006543 14.07817383 3.51380859 13.71884766 2.90917969 13.34863281 C0.26720142 11.8382843 -1.55772805 10.97831356 -4.62890625 11.12890625 C-24.44057224 18.4073272 -38.90640557 37.10321886 -47.75 55.4375 C-56.90294959 76.52639062 -57.52552708 98.12211618 -49.375 119.5625 C-43.89977425 133.0617635 -35.24053255 144.62579283 -21.80297852 150.85546875 C-18.95410005 152.01874218 -16.15049956 152.85934049 -13.17578125 153.640625 C-12.20165283 153.89875977 -11.22752441 154.15689453 -10.22387695 154.42285156 C-9.48999756 154.61331055 -8.75611816 154.80376953 -8 155 C-7.83774539 147.24395203 -7.77094604 139.49112915 -7.76806641 131.73339844 C-7.75611873 129.09909757 -7.72293808 126.46479884 -7.66748047 123.83105469 C-6.58822353 107.31887005 -6.58822353 107.31887005 -13.1362915 92.94171143 C-15.62407363 90.66883193 -18.17336269 88.84635265 -21 87 C-25.86950327 83.35669107 -25.86950327 83.35669107 -26.9375 80.4375 C-27 78 -27 78 -25 75 C-19 75 -19 75 -9 84 C-9 67.83 -9 51.66 -9 35 C-21.44989543 49.93987451 -30.70232434 64.21044622 -32 84 C-32.0515625 84.75667969 -32.103125 85.51335937 -32.15625 86.29296875 C-32.48494202 95.3456949 -30.63787597 104.13792109 -29 113 C-27.89398438 113.12503906 -26.78796875 113.25007813 -25.6484375 113.37890625 C-21.60586411 114.06709594 -20.48469226 114.84635213 -18 118 C-16.39134225 121.21731551 -16.53303867 124.5107612 -17 128 C-18.70573877 131.41147754 -20.03500427 133.38347495 -23.25 135.4375 C-27.04412325 136.21357066 -30.29189651 136.18359667 -34 135 C-36.64233769 132.80742191 -38.46669809 131.06660382 -40 128 C-40.23144559 120.94090952 -40.23144559 120.94090952 -39.40234375 117.5703125 C-38.91724688 114.47134412 -39.50794272 112.67447738 -40.4375 109.6875 C-46.33225984 85.64452119 -40.64975431 63.03462044 -28.39453125 42.28125 C-22.75525462 33.45192681 -14.57738559 22.63512066 -4.3828125 19.08984375 C-2 19 -2 19 -0.38305664 20.02490234 C1.69347443 22.990328 1.48008166 26.0145113 1.51171875 29.51171875 C1.52966995 30.23994339 1.54762115 30.96816803 1.56611633 31.71846008 C1.62024213 34.04141471 1.6541208 36.36416366 1.6875 38.6875 C1.72067125 40.26370051 1.75516073 41.83987388 1.79101562 43.41601562 C1.8759693 47.27719536 1.94276876 51.13831387 2 55 C2.46688232 54.50121338 2.93376465 54.00242676 3.41479492 53.48852539 C4.03459229 52.84391357 4.65438965 52.19930176 5.29296875 51.53515625 C5.90422607 50.89199463 6.5154834 50.24883301 7.14526367 49.58618164 C9 48 9 48 12.3125 47.4375 C15 48 15 48 17 50 C17.58813477 52.23022461 17.58813477 52.23022461 17 55 C15.35868421 56.68193725 13.57180536 58.08601581 11.73719788 59.55418396 C6.21504526 64.08592854 1.87315295 68.2753799 0.66845703 75.53076172 C0.12913761 81.67418944 0.32564831 87.783645 0.5625 93.9375 C0.58958357 96.08521052 0.60981582 98.23301885 0.62304688 100.38085938 C0.66983812 105.5917302 0.80887886 110.79250732 1 116 C2.32064453 114.9171875 2.32064453 114.9171875 3.66796875 113.8125 C4.84063788 112.8743647 6.01384336 111.93689958 7.1875 111 C7.76564453 110.52304688 8.34378906 110.04609375 8.93945312 109.5546875 C11.54369658 107.49483392 13.50410508 106.08264915 16.8125 105.53125 C19 106 19 106 20.8125 108.5 C21.4003125 109.7375 21.4003125 109.7375 22 111 C20.37075256 114.67542828 18.80585965 116.28554929 15.2421875 117.91796875 C10.10985112 120.45990302 5.92883813 122.92898374 3 128 C1.47311845 135.37069924 1.58975457 142.75669409 1.80615234 150.25268555 C1.83813972 151.37146591 1.83813972 151.37146591 1.87077332 152.5128479 C1.92205766 153.93709816 1.99233501 155.36082423 2.0839386 156.78305054 C2.31573369 161.55417547 2.31573369 161.55417547 0.63183594 163.93188477 C-3.48090714 166.62387324 -9.26133561 165.26293154 -13.8671875 164.56640625 C-29.46337723 161.23618537 -42.61335842 152.09055534 -51.34375 138.7890625 C-64.74897396 116.2151712 -69.37721187 92.04367194 -62.9375 66.5 C-54.96841609 37.27704769 -36.01782883 16.7532425 -10.49609375 1.50390625 C-6.46073499 -0.70903242 -4.37521301 -1.29381299 0 0 Z M-30 121 C-30.66 121.66 -31.32 122.32 -32 123 C-31.91428339 125.09291157 -31.91428339 125.09291157 -31 127 C-30.01 127.33 -29.02 127.66 -28 128 C-27.01 127.34 -26.02 126.68 -25 126 C-25.33 124.68 -25.66 123.36 -26 122 C-27.89179203 121.3185177 -27.89179203 121.3185177 -30 121 Z M28 137 C27.34 137.66 26.68 138.32 26 139 C26.3185177 141.10820797 26.3185177 141.10820797 27 143 C28.89179203 143.6814823 28.89179203 143.6814823 31 144 C31.66 143.34 32.32 142.68 33 142 C32.6814823 139.89179203 32.6814823 139.89179203 32 138 C30.10820797 137.3185177 30.10820797 137.3185177 28 137 Z " fill="#FE8E6A" transform="translate(105,13)"/>
<path d="M0 0 C2.97 0 5.94 0 9 0 C9.01458252 1.3317627 9.02916504 2.66352539 9.04418945 4.03564453 C9.10228101 8.9895272 9.17951373 13.94296051 9.26245117 18.89648438 C9.29564938 21.0380116 9.32369714 23.17962524 9.34643555 25.32128906 C9.38007504 28.40467054 9.43239654 31.48726369 9.48828125 34.5703125 C9.49467117 35.52366486 9.5010611 36.47701721 9.50764465 37.45925903 C9.62451049 42.77574806 10.22201858 46.31998142 13 51 C13 51.66 13 52.32 13 53 C13.78375 53.309375 14.5675 53.61875 15.375 53.9375 C18 55 18 55 20 56 C21.4494793 56.11767472 22.90393996 56.17689268 24.35791016 56.20532227 C25.25869293 56.22526749 26.15947571 56.24521271 27.08755493 56.26576233 C28.54855118 56.29083107 28.54855118 56.29083107 30.0390625 56.31640625 C31.53305069 56.3475779 31.53305069 56.3475779 33.05722046 56.37937927 C36.24640854 56.44489042 39.43568058 56.50376704 42.625 56.5625 C44.78386293 56.60568373 46.9427173 56.64929797 49.1015625 56.69335938 C54.4009551 56.80057342 59.70043234 56.90183648 65 57 C65 59.97 65 62.94 65 66 C58.31059039 66.09922675 51.6216137 66.17163877 44.93164062 66.21972656 C42.65812716 66.23978317 40.3846649 66.26703538 38.11132812 66.30175781 C34.83450651 66.35053712 31.55836975 66.37302897 28.28125 66.390625 C26.76827332 66.42159271 26.76827332 66.42159271 25.22473145 66.45318604 C17.41171338 66.45564389 12.28836242 64.69047834 6.25 59.75 C0.41784002 52.62180447 -0.57272301 46.58962212 -0.390625 37.5 C-0.38496521 36.42371338 -0.37930542 35.34742676 -0.37347412 34.23852539 C-0.35121234 30.82521735 -0.30103352 27.41298691 -0.25 24 C-0.22992189 21.67579649 -0.21167342 19.3515764 -0.1953125 17.02734375 C-0.15138073 11.35115186 -0.08242276 5.67575818 0 0 Z " fill="#FE8A65" transform="translate(0,131)"/>
<path d="M0 0 C1.55208664 0.00424484 1.55208664 0.00424484 3.13552856 0.00857544 C6.42640964 0.01973202 9.71701428 0.04482853 13.0078125 0.0703125 C15.24478772 0.08034813 17.48176723 0.08947297 19.71875 0.09765625 C25.19020998 0.1196566 30.66146444 0.1541555 36.1328125 0.1953125 C36.1328125 3.1653125 36.1328125 6.1353125 36.1328125 9.1953125 C34.23390259 9.21718628 34.23390259 9.21718628 32.29663086 9.23950195 C27.57939046 9.29767372 22.86261799 9.37490543 18.14575195 9.45776367 C16.10806905 9.49092434 14.07029626 9.51898362 12.0324707 9.54174805 C9.09547787 9.57545712 6.15930227 9.62778124 3.22265625 9.68359375 C2.31821274 9.68998367 1.41376923 9.6963736 0.48191833 9.70295715 C-5.03629061 9.82991313 -8.98335409 10.56671096 -13.8671875 13.1953125 C-18.75548637 18.34089026 -19.03982471 22.75298035 -19.18359375 29.58203125 C-19.20437485 30.39904007 -19.22515594 31.21604889 -19.24656677 32.05781555 C-19.31191829 34.66606284 -19.37088023 37.27441025 -19.4296875 39.8828125 C-19.47288642 41.65170304 -19.51650115 43.42058347 -19.56054688 45.18945312 C-19.66758493 49.52463713 -19.76889294 53.85992179 -19.8671875 58.1953125 C-22.8371875 58.1953125 -25.8071875 58.1953125 -28.8671875 58.1953125 C-28.96654629 52.50281791 -29.03888673 46.81083532 -29.08691406 41.11767578 C-29.10694891 39.18366698 -29.13418479 37.24971815 -29.16894531 35.31591797 C-29.21782321 32.52556507 -29.24023769 29.73601749 -29.2578125 26.9453125 C-29.28878021 25.6620105 -29.28878021 25.6620105 -29.32037354 24.3527832 C-29.32293114 17.40906344 -27.48777434 12.24028588 -22.9375 6.953125 C-22.29554687 6.41429687 -21.65359375 5.87546875 -20.9921875 5.3203125 C-20.35539062 4.76601562 -19.71859375 4.21171875 -19.0625 3.640625 C-13.0467057 -0.31995132 -6.93580333 -0.07180356 0 0 Z " fill="#FE8965" transform="translate(28.8671875,-0.1953125)"/>
<path d="M0 0 C2.64 0 5.28 0 8 0 C8.10155026 7.29561453 8.17152891 14.59104629 8.21972656 21.88720703 C8.23982241 24.36839611 8.26710384 26.84953795 8.30175781 29.33056641 C8.35036294 32.90018382 8.37298972 36.46917416 8.390625 40.0390625 C8.41127014 41.14553131 8.43191528 42.25200012 8.45318604 43.39199829 C8.45537127 50.91876104 7.47052818 54.36642687 2.25390625 59.828125 C1.69574219 60.29734375 1.13757813 60.7665625 0.5625 61.25 C0.00691406 61.72953125 -0.54867187 62.2090625 -1.12109375 62.703125 C-6.45328563 66.38355682 -11.42260829 66.26760433 -17.67578125 66.1953125 C-19.06351997 66.19106766 -19.06351997 66.19106766 -20.47929382 66.18673706 C-23.42382942 66.17557392 -26.36805688 66.15047637 -29.3125 66.125 C-31.31314664 66.11496521 -33.31379806 66.10584023 -35.31445312 66.09765625 C-40.2097535 66.07564722 -45.10482457 66.04114391 -50 66 C-50 63.03 -50 60.06 -50 57 C-48.32043213 56.97812622 -48.32043213 56.97812622 -46.60693359 56.95581055 C-42.43571726 56.89765114 -38.26503081 56.82041977 -34.09423828 56.73754883 C-32.29224271 56.70438227 -30.49014533 56.67632475 -28.68798828 56.65356445 C-26.09103177 56.61986568 -23.49500134 56.56754351 -20.8984375 56.51171875 C-19.69808365 56.50213387 -19.69808365 56.50213387 -18.47348022 56.49235535 C-13.60459363 56.36560139 -10.23103352 55.65507131 -6 53 C-2.28796422 48.98698835 -0.9009139 45.94660894 -0.79467773 40.52856445 C-0.77473251 39.62785721 -0.75478729 38.72714996 -0.73423767 37.79914856 C-0.71752518 36.83031235 -0.70081268 35.86147614 -0.68359375 34.86328125 C-0.66281265 33.86870407 -0.64203156 32.87412689 -0.62062073 31.84941101 C-0.55520588 28.67051133 -0.4962776 25.49152866 -0.4375 22.3125 C-0.39430712 20.15819452 -0.35069258 18.00389746 -0.30664062 15.84960938 C-0.19953274 10.56649412 -0.09775127 5.28329621 0 0 Z " fill="#FE8964" transform="translate(188,131)"/>
<path d="M0 0 C5.67418403 -0.09947326 11.3478515 -0.17175249 17.02270508 -0.21972656 C18.94987845 -0.23974243 20.87699186 -0.26696383 22.80395508 -0.30175781 C25.58690252 -0.35072041 28.36904156 -0.37306917 31.15234375 -0.390625 C32.00271713 -0.41127014 32.85309052 -0.43191528 33.72923279 -0.45318604 C40.85121935 -0.45580954 46.90406209 1.34706637 52.375 6.03515625 C52.91125 6.70417969 53.4475 7.37320312 54 8.0625 C54.556875 8.73410156 55.11375 9.40570313 55.6875 10.09765625 C57.78769626 13.14169071 58.12406058 15.69534111 58.11352539 19.2878418 C58.11344986 20.14850754 58.11337433 21.00917328 58.11329651 21.8959198 C58.10813522 22.82100845 58.10297394 23.74609711 58.09765625 24.69921875 C58.0962413 25.64940384 58.09482635 26.59958893 58.09336853 27.5785675 C58.08776875 30.61491029 58.07521632 33.65117948 58.0625 36.6875 C58.05748497 38.74544164 58.05292207 40.80338444 58.04882812 42.86132812 C58.0377994 47.90758046 58.02053493 52.95377775 58 58 C55.36 58 52.72 58 50 58 C49.98541748 56.94611084 49.97083496 55.89222168 49.95581055 54.80639648 C49.89755055 50.87181787 49.82032096 46.93779507 49.73754883 43.00366211 C49.70442917 41.30551214 49.67635739 39.60725552 49.65356445 37.90893555 C49.61977831 35.45836213 49.56745361 33.00875469 49.51171875 30.55859375 C49.50532883 29.80726669 49.4989389 29.05593964 49.49235535 28.28184509 C49.32186071 22.07832986 48.16229014 17.1068468 43.5625 12.625 C38.81198685 9.61247947 34.01608721 9.80015039 28.515625 9.68359375 C27.29223419 9.6524221 27.29223419 9.6524221 26.04412842 9.62062073 C23.44616895 9.55538703 20.84811087 9.49636232 18.25 9.4375 C16.485667 9.39428986 14.72134387 9.35067478 12.95703125 9.30664062 C8.63812116 9.19973255 4.31911216 9.09839173 0 9 C0 6.03 0 3.06 0 0 Z " fill="#FE8862" transform="translate(138,0)"/>
<path d="M0 0 C0.66 0.33 1.32 0.66 2 1 C-3.94 6.94 -9.88 12.88 -16 19 C-16.66 18.67 -17.32 18.34 -18 18 C-6.66287016 5.33029613 -6.66287016 5.33029613 0 0 Z " fill="#FEB39B" transform="translate(78,25)"/>
<path d="M0 0 C0.66 0.33 1.32 0.66 2 1 C-3.28 6.28 -8.56 11.56 -14 17 C-14 12.08113186 -10.31173311 9.3948461 -7 6 C-4.72300284 3.91201998 -2.39497582 1.9550823 0 0 Z " fill="#FEB69F" transform="translate(95,35)"/>
</svg>
