<svg height="512" viewBox="0 0 60 60" width="512" xmlns="http://www.w3.org/2000/svg"><g id="b"><path d="m12 22h14c.551 0 1-.449 1-1 0-2.757-2.243-5-5-5h-6c-2.757 0-5 2.243-5 5 0 .551.449 1 1 1z"/><path d="m7.11 27h.233c1.061 0 2.078.421 2.828 1.172l6.121 6.121c.63.63 1.707.184 1.707-.707v-4.586c0-1.105.895-2 2-2h11c3.314 0 6-2.686 6-6v-14c0-3.314-2.686-6-6-6h-23.889c-3.314 0-6 2.686-6 6v14c0 3.314 2.686 6 6 6zm7.55-12.868c-1.026-1.077-1.66-2.53-1.66-4.132 0-3.309 2.691-6 6-6s6 2.691 6 6c0 1.602-.634 3.055-1.66 4.132 3.221.627 5.66 3.467 5.66 6.868 0 1.654-1.346 3-3 3h-14c-1.654 0-3-1.346-3-3 0-3.401 2.44-6.241 5.66-6.868z"/><circle cx="19" cy="10" r="4"/><path d="m52.982 33h-.234c-1.064 0-2.085-.421-2.837-1.172l-6.14-6.121c-.632-.63-1.712-.184-1.712.707v4.586c0 1.105-.898 2-2.006 2h-11.034c-3.324 0-6.018 2.686-6.018 6v14c0 3.314 2.695 6 6.018 6h23.963c3.324 0 6.018-2.686 6.018-6v-14c0-3.314-2.695-6-6.018-6zm-4.982 23h-14c-1.654 0-3-1.346-3-3 0-3.401 2.44-6.241 5.66-6.868-1.026-1.077-1.66-2.53-1.66-4.132 0-3.309 2.691-6 6-6s6 2.691 6 6c0 1.602-.634 3.055-1.66 4.132 3.22.627 5.66 3.467 5.66 6.868 0 1.654-1.346 3-3 3z"/><circle cx="41" cy="42" r="4"/><path d="m44 48h-6c-2.757 0-5 2.243-5 5 0 .551.449 1 1 1h14c.552 0 1-.449 1-1 0-2.757-2.243-5-5-5z"/><path d="m39 7v2h19c.55 0 1-.45 1-1s-.45-1-1-1z"/><path d="m46 14c0-.55-.45-1-1-1h-6v2h6c.55 0 1-.45 1-1z"/><path d="m42 21h13c.553 0 1-.448 1-1s-.447-1-1-1h-13c-.552 0-1 .448-1 1s.448 1 1 1z"/><path d="m21 51h-19c-.55 0-1 .45-1 1s.45 1 1 1h19z"/><path d="m14 46c0 .55.45 1 1 1h6v-2h-6c-.55 0-1 .45-1 1z"/><path d="m19 40c0-.552-.448-1-1-1h-13c-.552 0-1 .448-1 1s.448 1 1 1h13c.552 0 1-.448 1-1z"/></g></svg>