<?xml version="1.0" encoding="UTF-8"?>
<svg version="1.1" xmlns="http://www.w3.org/2000/svg" width="124" height="117">
<path d="M0 0 C1.9453125 -0.29296875 1.9453125 -0.29296875 4.125 -0.1875 C5.40375 -0.125625 6.6825 -0.06375 8 0 C8.495 2.475 8.495 2.475 9 5 C7.68 5.33 6.36 5.66 5 6 C5 7.65 5 9.3 5 11 C5.969375 11.144375 6.93875 11.28875 7.9375 11.4375 C11 12 11 12 12 13 C12.14115161 15.67058851 12.04247107 18.32432238 12 21 C12.6290625 21.13535156 13.258125 21.27070313 13.90625 21.41015625 C21.99238326 23.44386748 27.16325671 27.01082974 32 33.8125 C33.77397411 39.46704248 33.81580622 44.72433003 31.8125 50.3125 C27.30807417 56.99147623 21.52822691 61.2637742 13.75 63.25 C2.17044077 65.41750603 -9.68740283 63.70263412 -20.5625 59.25 C-25.85105096 57.32689056 -29.00515824 58.85935353 -34 61 C-36.39763185 58.60236815 -36.34280586 57.66726502 -36.625 54.375 C-36.69976562 53.55773438 -36.77453125 52.74046875 -36.8515625 51.8984375 C-36.90054688 51.27195313 -36.94953125 50.64546875 -37 50 C-37.66 50.99 -38.32 51.98 -39 53 C-42.5 53.3125 -42.5 53.3125 -46 53 C-48 51 -48 51 -48.1875 48.0625 C-48 45 -48 45 -47 42 C-47.7734375 41.38125 -47.7734375 41.38125 -48.5625 40.75 C-49.036875 40.1725 -49.51125 39.595 -50 39 C-49.6875 36.8125 -49.6875 36.8125 -49 35 C-47.02 35 -45.04 35 -43 35 C-42.67 36.65 -42.34 38.3 -42 40 C-40.68 40 -39.36 40 -38 40 C-37.34 35.05 -36.68 30.1 -36 25 C-31 24 -31 24 -28.3125 25.6875 C-24.37020462 27.24954156 -23.65946065 26.81157627 -19.875 25.25 C-19.04742187 24.86328125 -18.21984375 24.4765625 -17.3671875 24.078125 C-15 23 -15 23 -12.828125 22.63671875 C-10.79956255 22.1492617 -10.79956255 22.1492617 -9.8046875 20.00390625 C-9.49789062 19.19824219 -9.19109375 18.39257812 -8.875 17.5625 C-7.167979 13.167979 -7.167979 13.167979 -5 11 C-4.01 11 -3.02 11 -2 11 C-2.04125 9.741875 -2.0825 8.48375 -2.125 7.1875 C-2.2390374 3.70935927 -2.05925681 3.08888522 0 0 Z M-2 19 C-2.04640625 19.88751953 -2.04640625 19.88751953 -2.09375 20.79296875 C-2.60406705 23.80089519 -3.18078753 25.51849359 -5 28 C-8.26242167 29.42037406 -11.36987838 30.35996658 -14.79736328 31.25439453 C-20.59131785 32.77538963 -25.58348972 34.78815727 -30 39 C-31.22417455 41.08641927 -31.22417455 41.08641927 -32 43 C-24.26756577 52.02117327 -12.0957582 55.58983758 -0.625 56.875 C7.08736891 57.31206459 15.21629883 56.43626575 21.625 51.75 C24.50348504 48.41701733 25.48006924 46.38227355 26 42 C25.23451936 37.40711616 23.7829693 34.67620076 20.25 31.625 C14.99796323 28.99898162 10.88685003 28 5 28 C5 24.7 5 21.4 5 18 C2.66140564 18 0.29969577 18.60856242 -2 19 Z " fill="#75BC59" transform="translate(70,0)"/>
<path d="M0 0 C1.125 5.75 1.125 5.75 0 8 C-0.99 8.33 -1.98 8.66 -3 9 C-0.69 9.33 1.62 9.66 4 10 C3.8453125 8.9171875 3.8453125 8.9171875 3.6875 7.8125 C4 5 4 5 6 2.1875 C10.03014613 -0.75114822 12.11590878 -0.41390604 17 0 C17 2.64 17 5.28 17 8 C15.68 8 14.36 8 13 8 C13 8.66 13 9.32 13 10 C14.32 10.33 15.64 10.66 17 11 C17 13.31 17 15.62 17 18 C15.35 18 13.7 18 12 18 C12 23.61 12 29.22 12 35 C9.36 35 6.72 35 4 35 C4 29.39 4 23.78 4 18 C1.36 18 -1.28 18 -4 18 C-4 23.61 -4 29.22 -4 35 C-6.97 35 -9.94 35 -13 35 C-13 29.39 -13 23.78 -13 18 C-13.99 18 -14.98 18 -16 18 C-16 20.64 -16 23.28 -16 26 C-21.28 26.33 -26.56 26.66 -32 27 C-27.39467611 28.45314664 -27.39467611 28.45314664 -25 27 C-22.3276379 26.86584528 -19.67749512 26.95681459 -17 27 C-17.26690006 30.20280069 -17.83329016 31.7943912 -19.875 34.3125 C-24.53670765 36.82982213 -28.81319657 36.76052836 -34 36 C-38.16884941 33.95214415 -40.28187228 32.26835318 -42 28 C-42.69633388 23.09327524 -42.49572757 19.09060066 -40.4375 14.5625 C-37.08410574 11.0371368 -33.92682906 9.18681888 -28.98046875 8.87109375 C-23.56905226 9.21254068 -20.82459967 11.27101532 -17 15 C-16.67 13.35 -16.34 11.7 -16 10 C-15.01 10 -14.02 10 -13 10 C-12.938125 9.278125 -12.87625 8.55625 -12.8125 7.8125 C-10.83257475 0.95891259 -6.72514057 -0.65932751 0 0 Z M-30 17 C-30.66 17.66 -31.32 18.32 -32 19 C-29.69 19 -27.38 19 -25 19 C-25.66 18.34 -26.32 17.68 -27 17 C-27.99 17 -28.98 17 -30 17 Z " fill="#72BB55" transform="translate(43,72)"/>
<path d="M0 0 C2.97 0 5.94 0 9 0 C9.99 3.3 10.98 6.6 12 10 C12.66 10 13.32 10 14 10 C14.66 6.7 15.32 3.4 16 0 C18.97 0 21.94 0 25 0 C24.46689335 7.75427859 21.95876317 14.68717849 19.4375 22 C19.00776298 23.26408497 18.57872069 24.52840635 18.15039062 25.79296875 C17.10705272 28.86436798 16.0567602 31.93319848 15 35 C12.03 35 9.06 35 6 35 C6.15339844 34.27039063 6.30679688 33.54078125 6.46484375 32.7890625 C8.00598312 22.47234443 4.93061417 15.17393067 0.65844727 5.90014648 C0 4 0 4 0 0 Z " fill="#70BA54" transform="translate(98,82)"/>
<path d="M0 0 C3.342979 2.22865266 4.96272619 4.32343429 6.8125 7.875 C6.4825 8.865 6.1525 9.855 5.8125 10.875 C-0.2421875 11.0703125 -0.2421875 11.0703125 -2.1875 10.875 C-2.8475 10.215 -3.5075 9.555 -4.1875 8.875 C-7.27097826 8.70818891 -7.27097826 8.70818891 -10.1875 8.875 C-10.23004356 10.87454746 -10.22830783 12.87541636 -10.1875 14.875 C-9.1279123 16.15822547 -9.1279123 16.15822547 -6.6875 16 C-4.2470877 16.15822547 -4.2470877 16.15822547 -3.1875 14.875 C-1.66821962 14.80320036 -0.14582518 14.79107993 1.375 14.8125 C2.20128906 14.82152344 3.02757813 14.83054687 3.87890625 14.83984375 C4.51699219 14.85144531 5.15507813 14.86304687 5.8125 14.875 C6.1425 15.535 6.4725 16.195 6.8125 16.875 C4.54573742 21.29518704 2.57899079 24.28616974 -2.1875 25.875 C-6.8469918 26.41638857 -10.29303068 26.30567041 -14.5625 24.25 C-18.50956917 20.67884218 -19.95464172 17.70460078 -20.625 12.4375 C-20.09496956 8.12153784 -18.97414775 5.21380087 -16.1875 1.875 C-10.86833783 -1.78931172 -6.0516031 -2.13585992 0 0 Z " fill="#6CB84F" transform="translate(92.1875,82.125)"/>
<path d="M0 0 C0 2.64 0 5.28 0 8 C-1.32 8 -2.64 8 -4 8 C-4 8.66 -4 9.32 -4 10 C-2.68 10.33 -1.36 10.66 0 11 C0 13.31 0 15.62 0 18 C-1.65 18 -3.3 18 -5 18 C-5 23.61 -5 29.22 -5 35 C-7.64 35 -10.28 35 -13 35 C-13 29.39 -13 23.78 -13 18 C-15.64 18 -18.28 18 -21 18 C-21 23.61 -21 29.22 -21 35 C-23.97 35 -26.94 35 -30 35 C-30 29.39 -30 23.78 -30 18 C-29.67 18 -29.34 18 -29 18 C-29 23.28 -29 28.56 -29 34 C-26.69 34 -24.38 34 -22 34 C-22 28.39 -22 22.78 -22 17 C-20.68 17 -19.36 17 -18 17 C-18 15.02 -18 13.04 -18 11 C-19.32 11 -20.64 11 -22 11 C-21.67 10.34 -21.34 9.68 -21 9 C-18.36 9.33 -15.72 9.66 -13 10 C-13.103125 9.278125 -13.20625 8.55625 -13.3125 7.8125 C-13 5 -13 5 -11 2.1875 C-6.96985387 -0.75114822 -4.88409122 -0.41390604 0 0 Z " fill="#78BE5D" transform="translate(60,72)"/>
<path d="M0 0 C1.125 5.75 1.125 5.75 0 8 C-2.5625 8.625 -2.5625 8.625 -5 9 C-5 9.66 -5 10.32 -5 11 C-3.68 11 -2.36 11 -1 11 C-1 12.98 -1 14.96 -1 17 C-2.32 17 -3.64 17 -5 17 C-5 22.61 -5 28.22 -5 34 C-7.31 34 -9.62 34 -12 34 C-12 28.72 -12 23.44 -12 18 C-12.99 18 -13.98 18 -15 18 C-15 15.69 -15 13.38 -15 11 C-14.01 11 -13.02 11 -12 11 C-11.9175 9.741875 -11.835 8.48375 -11.75 7.1875 C-11.38040174 4.36556735 -11.20302229 3.24987359 -9.375 1 C-6.17067842 -0.34918804 -3.43707561 -0.19829282 0 0 Z " fill="#59AF38" transform="translate(43,72)"/>
<path d="M0 0 C2.64 0 5.28 0 8 0 C9 1 9 1 9.11352539 3.31665039 C9.10828857 4.31688232 9.10305176 5.31711426 9.09765625 6.34765625 C9.09443359 7.42724609 9.09121094 8.50683594 9.08789062 9.61914062 C9.07951172 10.75544922 9.07113281 11.89175781 9.0625 13.0625 C9.05798828 14.20267578 9.05347656 15.34285156 9.04882812 16.51757812 C9.03699747 19.34510351 9.0205141 22.1725264 9 25 C2.25 26.125 2.25 26.125 0 25 C0 16.75 0 8.5 0 0 Z " fill="#77BE5D" transform="translate(61,82)"/>
<path d="M0 0 C1.98 0 3.96 0 6 0 C6.33 1.65 6.66 3.3 7 5 C8.32 5 9.64 5 11 5 C11.22245393 6.60226955 11.42746669 8.20696767 11.625 9.8125 C11.74101563 10.70582031 11.85703125 11.59914063 11.9765625 12.51953125 C12 15 12 15 10 18 C6.5 18.3125 6.5 18.3125 3 18 C1 16 1 16 0.8125 13.0625 C1 10 1 10 2 7 C1.484375 6.5875 0.96875 6.175 0.4375 5.75 C-0.036875 5.1725 -0.51125 4.595 -1 4 C-0.6875 1.8125 -0.6875 1.8125 0 0 Z " fill="#7BBF60" transform="translate(21,35)"/>
<path d="M0 0 C0.04241723 2.33294775 0.04092937 4.66702567 0 7 C-1 8 -1 8 -2.84765625 8.09765625 C-4.8984375 8.06510417 -6.94921875 8.03255208 -9 8 C-9 5.36 -9 2.72 -9 0 C-5.93109813 -1.53445094 -3.29905734 -0.54984289 0 0 Z " fill="#8FC978" transform="translate(70,72)"/>
<path d="M0 0 C1.98 0 3.96 0 6 0 C6.33 1.65 6.66 3.3 7 5 C8.32 5 9.64 5 11 5 C11 5.66 11 6.32 11 7 C8.69 7 6.38 7 4 7 C3.67 7.99 3.34 8.98 3 10 C2.71125 9.38125 2.4225 8.7625 2.125 8.125 C1.06279958 5.86674235 1.06279958 5.86674235 -1 4 C-0.625 1.875 -0.625 1.875 0 0 Z " fill="#8FC978" transform="translate(21,35)"/>
<path d="M0 0 C0 0.33 0 0.66 0 1 C-0.62648438 1.02578125 -1.25296875 1.0515625 -1.8984375 1.078125 C-2.71570313 1.13484375 -3.53296875 1.1915625 -4.375 1.25 C-5.18710938 1.29640625 -5.99921875 1.3428125 -6.8359375 1.390625 C-7.90714844 1.69226563 -7.90714844 1.69226563 -9 2 C-9.70897043 3.31132877 -10.3743374 4.64694105 -11 6 C-12.98 6.99 -12.98 6.99 -15 8 C-15 11.96 -15 15.92 -15 20 C-17.51475368 16.22786948 -17.44796416 14.47964158 -17 10 C-15.53316888 5.93287736 -13.75827242 3.52236545 -10.1875 1.0625 C-6.6175298 -0.12749007 -3.73908713 -0.22434523 0 0 Z " fill="#B4DBA5" transform="translate(89,81)"/>
</svg>
