<?xml version="1.0" encoding="UTF-8"?>
<svg version="1.1" xmlns="http://www.w3.org/2000/svg" width="273" height="311">
<path d="M0 0 C90.09 0 180.18 0 273 0 C273 102.63 273 205.26 273 311 C182.91 311 92.82 311 0 311 C0 208.37 0 105.74 0 0 Z " fill="#FDFDFD" transform="translate(0,0)"/>
<path d="M0 0 C44.88 0 89.76 0 136 0 C136 102.63 136 205.26 136 311 C96.07 311 56.14 311 15 311 C15 279.65 15 248.3 15 216 C24.00110165 216 24.00110165 216 27.0859375 216.51904297 C27.78025879 216.6327121 28.47458008 216.74638123 29.18994141 216.86349487 C29.91101074 216.98846344 30.63208008 217.11343201 31.375 217.2421875 C32.14376465 217.37062042 32.9125293 217.49905334 33.70458984 217.63137817 C35.31855468 217.9023727 36.93199756 218.17649296 38.54492188 218.45361328 C40.99229122 218.87367687 43.44123015 219.28333746 45.890625 219.69140625 C47.46885324 219.95772225 49.0469818 220.22462974 50.625 220.4921875 C51.34606934 220.6131076 52.06713867 220.73402771 52.81005859 220.85861206 C57.60777687 221.68762137 62.28810692 222.77239303 67 224 C66.95359375 222.96488281 66.9071875 221.92976562 66.859375 220.86328125 C65.5419253 176.549523 78.943584 128.82156405 100 90 C100.36287109 89.32936523 100.72574219 88.65873047 101.09960938 87.96777344 C110.05985734 71.62804415 120.97691892 56.35315917 134 43 C114.15919014 40.95220999 91.66479907 50.57588293 76.0703125 62.3125 C69.45728029 67.70274513 63.14033313 73.1462225 58 80 C63.94 80 69.88 80 76 80 C74.6491497 84.05255089 73.40395271 87.30442962 71.43701172 90.99462891 C56.04888858 119.94414635 47.28257865 154.05590731 44.359375 186.61328125 C44 190 44 190 43 193 C41.81664062 192.86722656 40.63328125 192.73445312 39.4140625 192.59765625 C37.81771171 192.41924057 36.22135735 192.24085688 34.625 192.0625 C33.46291016 191.93198242 33.46291016 191.93198242 32.27734375 191.79882812 C26.5212438 191.15661863 20.76398711 190.57639871 15 190 C15 151.06 15 112.12 15 72 C22.72936895 73.28822816 29.66405746 74.56550579 37 77 C33.79501028 71.05134485 30.51938386 65.15540187 27.125 59.3125 C22.74254815 51.70710257 18.82298147 43.89872204 15 36 C14.66468262 35.3100293 14.32936523 34.62005859 13.98388672 33.90917969 C10.09874929 25.88572864 6.41461327 17.79805301 3 9.5625 C2.69698975 8.83426025 2.39397949 8.10602051 2.08178711 7.35571289 C0 2.25175993 0 2.25175993 0 0 Z " fill="#FDFDFD" transform="translate(137,0)"/>
<path d="M0 0 C2.30312981 2.30312981 3.02562314 4.16721028 4.25 7.1796875 C4.68812012 8.24340576 5.12624023 9.30712402 5.57763672 10.40307617 C6.0470166 11.54881104 6.51639648 12.6945459 7 13.875 C15.61029483 34.50836148 25.54379988 54.88719112 37.73657227 73.67602539 C38.15350342 74.44293701 38.57043457 75.20984863 39 76 C38.67 76.66 38.34 77.32 38 78 C30.74 76.02 23.48 74.04 16 72 C16 110.94 16 149.88 16 190 C19.3 190 22.6 190 26 190 C29.24503754 190.43335954 32.41325095 190.90681507 35.625 191.5 C36.43839844 191.64308594 37.25179687 191.78617188 38.08984375 191.93359375 C40.06124743 192.28148852 42.03083847 192.63963057 44 193 C44.06316406 191.8553125 44.12632812 190.710625 44.19140625 189.53125 C46.71859946 152.78480148 58.014777 116.53507504 75 84 C75.99 82.02 75.99 82.02 77 80 C67.1 80.495 67.1 80.495 57 81 C70.16047189 63.45270415 89.770388 50.79753256 111 45 C112.05960938 44.70222656 113.11921875 44.40445313 114.2109375 44.09765625 C121.58311817 42.19769995 128.4028641 41.63040961 136 42 C134.70835937 43.485 134.70835937 43.485 133.390625 45 C95.98608918 88.67516726 77.30790085 140.31864362 70 197 C69.83089111 198.23355225 69.66178223 199.46710449 69.48754883 200.73803711 C68.89701571 205.48028659 68.66104839 210.22852462 68.4375 215 C68.37272461 216.30517578 68.37272461 216.30517578 68.30664062 217.63671875 C68.20175782 219.75768219 68.10049925 221.87882433 68 224 C66.92218262 223.82871582 65.84436523 223.65743164 64.73388672 223.48095703 C60.6673279 222.83500731 56.60054166 222.19049884 52.53369141 221.54638672 C50.78623493 221.2694253 49.03883725 220.99209263 47.29150391 220.71435547 C44.75439243 220.31115416 42.21705993 219.90936794 39.6796875 219.5078125 C38.92074188 219.3868924 38.16179626 219.26597229 37.37985229 219.14138794 C30.2619624 218.01736161 23.13662545 217.01951792 16 216 C16 247.35 16 278.7 16 311 C5.77 311 -4.46 311 -15 311 C-15 279.65 -15 248.3 -15 216 C-37.66396658 219.20699379 -37.66396658 219.20699379 -60.09765625 223.265625 C-64 224 -64 224 -67 224 C-67.03440186 223.31413818 -67.06880371 222.62827637 -67.10424805 221.92163086 C-70.55138707 157.19558324 -88.92669434 93.04741154 -133.63671875 44.57421875 C-135 43 -135 43 -135 42 C-113.65305639 39.79676041 -90.83908667 50.7214993 -74 63 C-67.59201881 68.22428466 -61.76861843 74.08636043 -56 80 C-58.82445592 80.94148531 -60.14171618 81.07311695 -63.01171875 80.87890625 C-63.76904297 80.83056641 -64.52636719 80.78222656 -65.30664062 80.73242188 C-66.48516602 80.64831055 -66.48516602 80.64831055 -67.6875 80.5625 C-68.48478516 80.51029297 -69.28207031 80.45808594 -70.10351562 80.40429688 C-72.06936522 80.27480978 -74.03473665 80.13809959 -76 80 C-75.67837891 80.61182129 -75.35675781 81.22364258 -75.02539062 81.85400391 C-56.98717654 116.40580413 -45.36560667 153.91135686 -43 193 C-41.90042969 192.7834375 -40.80085938 192.566875 -39.66796875 192.34375 C-38.17457755 192.06197808 -36.68108215 191.78075803 -35.1875 191.5 C-34.46884766 191.35691406 -33.75019531 191.21382812 -33.00976562 191.06640625 C-26.73444989 189.90533462 -21.64492312 190 -15 190 C-15 151.06 -15 112.12 -15 72 C-26.59798623 74.65459244 -26.59798623 74.65459244 -38 78 C-36.66182483 74.4888608 -35.11804826 71.22357641 -33.3125 67.9296875 C-32.78382324 66.9610376 -32.25514648 65.9923877 -31.71044922 64.99438477 C-31.14600098 63.96498779 -30.58155273 62.93559082 -30 61.875 C-28.81452653 59.69432434 -27.62963654 57.51333138 -26.4453125 55.33203125 C-24.82973839 52.36067162 -23.21346453 49.38977589 -21.58886719 46.42333984 C-13.38799351 31.4216656 -6.29715246 15.89673204 0 0 Z " fill="#020202" transform="translate(136,0)"/>
<path d="M0 0 C0.33 1.32 0.66 2.64 1 4 C0.01 4.66 -0.98 5.32 -2 6 C-2.165 6.680625 -2.33 7.36125 -2.5 8.0625 C-2.665 8.701875 -2.83 9.34125 -3 10 C-3.99 10.33 -4.98 10.66 -6 11 C-6.73323796 13.01508358 -6.73323796 13.01508358 -7 15 C-7.99 15 -8.98 15 -10 15 C-10.99 17.475 -10.99 17.475 -12 20 C-12.99 20 -13.98 20 -15 20 C-12.68887531 16.85315414 -10.37587072 13.70769499 -8.0625 10.5625 C-7.40314453 9.66466797 -6.74378906 8.76683594 -6.06445312 7.84179688 C-5.43603516 6.98779297 -4.80761719 6.13378906 -4.16015625 5.25390625 C-3.57886963 4.46314697 -2.99758301 3.6723877 -2.39868164 2.85766602 C-1 1 -1 1 0 0 Z " fill="#E4E4E4" transform="translate(262,53)"/>
<path d="M0 0 C2.1385485 2.1385485 2.42655063 3.13275314 3 6 C2.01 6.33 1.02 6.66 0 7 C-0.66 7.99 -1.32 8.98 -2 10 C-3.39195915 5.82412255 -1.82323219 3.86525224 0 0 Z " fill="#232323" transform="translate(136,0)"/>
<path d="M0 0 C0.66 0.33 1.32 0.66 2 1 C0.35 2.98 -1.3 4.96 -3 7 C-3.99 6.34 -4.98 5.68 -6 5 C-4.02 3.35 -2.04 1.7 0 0 Z " fill="#202020" transform="translate(211,63)"/>
<path d="M0 0 C0.99 0.99 1.98 1.98 3 3 C1.68 4.32 0.36 5.64 -1 7 C-1.66 6.67 -2.32 6.34 -3 6 C-2.01 4.02 -1.02 2.04 0 0 Z " fill="#171717" transform="translate(213,80)"/>
</svg>
