<?xml version="1.0" encoding="UTF-8"?>
<svg version="1.1" xmlns="http://www.w3.org/2000/svg" width="128" height="128">
<path d="M0 0 C1.00853027 -0.00700928 2.01706055 -0.01401855 3.05615234 -0.02124023 C6.39188114 -0.03885406 9.72676248 -0.02718497 13.0625 -0.01367188 C15.37890791 -0.0163658 17.69531472 -0.02024739 20.01171875 -0.02526855 C24.86729698 -0.03116822 29.72258096 -0.02258526 34.578125 -0.00390625 C40.80614646 0.01888316 47.03347845 0.00576265 53.26147461 -0.01819611 C58.04497485 -0.0326412 62.82831127 -0.02805393 67.61181641 -0.01768494 C69.90836671 -0.0150141 72.20493183 -0.01829988 74.50146484 -0.02760315 C77.7097114 -0.03774714 80.91683706 -0.02229671 84.125 0 C85.55271729 -0.01214539 85.55271729 -0.01214539 87.00927734 -0.02453613 C93.35075602 0.05722911 93.35075602 0.05722911 96.6552124 2.19451904 C98.40428345 5.08177207 98.54641445 6.83524546 98.51660156 10.20410156 C98.51611816 11.36087402 98.51563477 12.51764648 98.51513672 13.70947266 C98.48444092 15.52487549 98.48444092 15.52487549 98.453125 17.37695312 C98.44909668 18.49344238 98.44506836 19.60993164 98.44091797 20.76025391 C98.41999525 24.92952923 98.36414981 29.09857024 98.3125 33.26757812 C98.23 42.59007812 98.1475 51.91257812 98.0625 61.51757812 C61.1025 61.51757812 24.1425 61.51757812 -13.9375 61.51757812 C-14.06125 47.53382812 -14.06125 47.53382812 -14.1875 33.26757812 C-14.22391602 30.32819336 -14.26033203 27.38880859 -14.29785156 24.36035156 C-14.30953314 22.03255952 -14.31972622 19.70475933 -14.328125 17.37695312 C-14.34858887 16.16668457 -14.36905273 14.95641602 -14.39013672 13.70947266 C-14.39062012 12.5527002 -14.39110352 11.39592773 -14.39160156 10.20410156 C-14.40492523 8.69852692 -14.40492523 8.69852692 -14.41851807 7.16253662 C-13.9375 4.51757812 -13.9375 4.51757812 -12.5302124 2.19451904 C-8.51073408 -0.40524006 -4.69123895 -0.0399077 0 0 Z M53.0625 17.51757812 C50.89783536 21.89092162 48.74355854 26.26916588 46.59887695 30.65234375 C45.86735951 32.14365769 45.13299014 33.63357614 44.39575195 35.12207031 C43.33838443 37.25813759 42.29127375 39.39896406 41.24609375 41.54101562 C40.91282578 42.20878021 40.5795578 42.8765448 40.2361908 43.56454468 C39.45055692 45.18738467 38.74814775 46.85002981 38.0625 48.51757812 C38.3925 49.17757812 38.7225 49.83757813 39.0625 50.51757812 C39.7225 50.51757812 40.3825 50.51757812 41.0625 50.51757812 C42.81592711 47.04012865 44.5646012 43.56030919 46.3125 40.08007812 C46.80363281 39.10619141 47.29476562 38.13230469 47.80078125 37.12890625 C53.34628672 27.72959692 53.34628672 27.72959692 56.0625 17.51757812 C55.0725 17.51757812 54.0825 17.51757812 53.0625 17.51757812 Z M2.0625 23.51757812 C1.95437997 26.26863234 1.87515055 29.015429 1.8125 31.76757812 C1.77898438 32.54488281 1.74546875 33.3221875 1.7109375 34.12304688 C1.62478524 38.89596224 1.62478524 38.89596224 3.859375 43.03320312 C7.08574965 45.20700165 9.26376556 45.06025447 13.0625 44.51757812 C15.43558391 43.10558683 15.43558391 43.10558683 17.0625 40.51757812 C17.54549309 37.5838423 17.44025294 34.73046373 17.3125 31.76757812 C17.29445313 30.97480469 17.27640625 30.18203125 17.2578125 29.36523438 C17.21083082 27.41549465 17.13909044 25.46637934 17.0625 23.51757812 C16.0725 23.51757812 15.0825 23.51757812 14.0625 23.51757812 C14.00191406 24.66097656 13.94132812 25.804375 13.87890625 26.98242188 C13.79451572 28.47332117 13.70986698 29.96420587 13.625 31.45507812 C13.56602539 32.58719727 13.56602539 32.58719727 13.50585938 33.7421875 C13.17578125 39.40429688 13.17578125 39.40429688 12.0625 40.51757812 C10.0825 40.51757812 8.1025 40.51757812 6.0625 40.51757812 C5.7325 35.23757812 5.4025 29.95757812 5.0625 24.51757812 C4.0725 24.18757813 3.0825 23.85757813 2.0625 23.51757812 Z M21.0625 23.51757812 C22.51200455 27.30859003 24.21422566 30.90504192 26.0625 34.51757812 C25.7015625 34.98808594 25.340625 35.45859375 24.96875 35.94335938 C24.27265625 36.87728516 24.27265625 36.87728516 23.5625 37.83007812 C22.86640625 38.75240234 22.86640625 38.75240234 22.15625 39.69335938 C20.80538717 41.59190817 20.80538717 41.59190817 21.0625 44.51757812 C24.87934226 42.96256831 27.25445732 40.48162317 30.0625 37.51757812 C30.31 38.30132812 30.5575 39.08507813 30.8125 39.89257812 C32.21639099 42.84074921 33.06925737 43.42005583 36.0625 44.51757812 C35.57425808 41.88107175 34.92152333 40.30069093 33.4375 38.01757812 C32.0625 35.51757812 32.0625 35.51757812 32.125 33.58007812 C33.44583319 30.67424511 35.28165863 28.16011693 37.0625 25.51757812 C37.0625 24.85757813 37.0625 24.19757812 37.0625 23.51757812 C36.0725 23.51757812 35.0825 23.51757812 34.0625 23.51757812 C32.60159212 25.05306593 32.60159212 25.05306593 31.375 27.01757812 C30.93800781 27.66726562 30.50101563 28.31695312 30.05078125 28.98632812 C29.72464844 29.49164063 29.39851563 29.99695313 29.0625 30.51757812 C28.44761719 29.75960937 28.44761719 29.75960937 27.8203125 28.98632812 C27.28148437 28.33664063 26.74265625 27.68695313 26.1875 27.01757812 C25.65382813 26.36789063 25.12015625 25.71820313 24.5703125 25.04882812 C24.07273438 24.54351562 23.57515625 24.03820312 23.0625 23.51757812 C22.4025 23.51757812 21.7425 23.51757812 21.0625 23.51757812 Z M59.0625 23.51757812 C58.92690325 26.08186328 58.82816812 28.63893028 58.75 31.20507812 C58.70810547 31.92630859 58.66621094 32.64753906 58.62304688 33.390625 C58.52743645 37.5783615 58.71204541 39.0696772 61.39453125 42.49804688 C63.92375952 44.71208612 63.92375952 44.71208612 67.0625 45.14257812 C71.17026186 44.2867944 72.48841033 42.80741132 75.0625 39.51757812 C75.65094184 36.71369935 75.54048997 34.05405156 75.375 31.20507812 C75.35244141 30.46451172 75.32988281 29.72394531 75.30664062 28.9609375 C75.2480815 27.14560455 75.15840886 25.33132132 75.0625 23.51757812 C74.0725 23.51757812 73.0825 23.51757812 72.0625 23.51757812 C72.00191406 24.66097656 71.94132812 25.804375 71.87890625 26.98242188 C71.79451572 28.47332117 71.70986698 29.96420587 71.625 31.45507812 C71.56602539 32.58719727 71.56602539 32.58719727 71.50585938 33.7421875 C71.17578125 39.40429688 71.17578125 39.40429688 70.0625 40.51757812 C67.0625 40.64257812 67.0625 40.64257812 64.0625 40.51757812 C62.00327598 38.45835411 62.64822421 34.30049688 62.5 31.45507812 C62.45681641 30.69646484 62.41363281 29.93785156 62.36914062 29.15625 C62.26276367 27.27692375 62.16210066 25.39727569 62.0625 23.51757812 C61.0725 23.51757812 60.0825 23.51757812 59.0625 23.51757812 Z M80.0625 23.51757812 C78.1229886 25.45708952 78.92993371 28.32964932 78.92578125 30.90625 C78.92964844 31.74736328 78.93351562 32.58847656 78.9375 33.45507812 C78.93363281 34.29232422 78.92976563 35.12957031 78.92578125 35.9921875 C78.92707031 36.79333984 78.92835937 37.59449219 78.9296875 38.41992188 C78.93081543 39.15718506 78.93194336 39.89444824 78.93310547 40.65405273 C78.94908146 42.61089414 78.94908146 42.61089414 80.0625 44.51757812 C80.7225 44.51757812 81.3825 44.51757812 82.0625 44.51757812 C82.0625 37.58757813 82.0625 30.65757813 82.0625 23.51757812 C81.4025 23.51757812 80.7425 23.51757812 80.0625 23.51757812 Z " fill="#000000" transform="translate(21.9375,13.482421875)"/>
<path d="M0 0 C36.96 0 73.92 0 112 0 C112 10 112 10 109 14 C106.2937563 14.90208123 104.76149014 15.12227599 101.98754883 15.11352539 C101.18694534 15.11344986 100.38634186 15.11337433 99.56147766 15.11329651 C98.70201035 15.10813522 97.84254303 15.10297394 96.95703125 15.09765625 C96.0734343 15.0962413 95.18983734 15.09482635 94.27946472 15.09336853 C91.45710872 15.08777069 88.63483203 15.07521861 85.8125 15.0625 C83.89908969 15.05748472 81.98567813 15.05292186 80.07226562 15.04882812 C75.38147986 15.03780197 70.69075337 15.02053883 66 15 C70.20981154 22.73227548 70.20981154 22.73227548 76.375 28.875 C78.4609375 30.4296875 78.4609375 30.4296875 80 32 C80 33.32 80 34.64 80 36 C64.16 36 48.32 36 32 36 C33.11120957 30.44395215 33.11120957 30.44395215 36.75 27.6875 C39.78787912 25.38590074 41.66842169 23.08962439 43.63769531 19.86645508 C44.30396942 18.7816259 44.30396942 18.7816259 44.98370361 17.67488098 C45.31908142 17.12217026 45.65445923 16.56945953 46 16 C44.81446533 15.98541748 43.62893066 15.97083496 42.4074707 15.95581055 C37.99961523 15.89774062 33.59226596 15.82050816 29.18481445 15.73754883 C27.27897369 15.70434038 25.37303554 15.67629575 23.46704102 15.65356445 C20.72369985 15.61994332 17.98124778 15.56762405 15.23828125 15.51171875 C14.38913651 15.50532883 13.53999176 15.4989389 12.66511536 15.49235535 C7.98377546 15.37659183 4.79578775 15.04606015 1 12 C0 10 0 10 0 0 Z M51 3 C51 4.32 51 5.64 51 7 C52.45823212 7.0270043 53.91660675 7.04639787 55.375 7.0625 C56.59316406 7.07990234 56.59316406 7.07990234 57.8359375 7.09765625 C60.04937142 7.14466334 60.04937142 7.14466334 62 6 C62 5.34 62 4.68 62 4 C59.59454362 2.79727181 58.05003047 2.89928528 55.375 2.9375 C54.55773438 2.94652344 53.74046875 2.95554687 52.8984375 2.96484375 C52.27195313 2.97644531 51.64546875 2.98804687 51 3 Z " fill="#000000" transform="translate(8,78)"/>
</svg>
