<?xml version="1.0" encoding="UTF-8"?>
<svg version="1.1" xmlns="http://www.w3.org/2000/svg" width="360" height="100">
<path d="M0 0 C2.1640625 -0.29296875 2.1640625 -0.29296875 4.625 -0.1875 C5.44226563 -0.16042969 6.25953125 -0.13335937 7.1015625 -0.10546875 C7.72804687 -0.07066406 8.35453125 -0.03585937 9 0 C9 2.31 9 4.62 9 7 C7.68 7 6.36 7 5 7 C5 8.65 5 10.3 5 12 C5.763125 11.938125 6.52625 11.87625 7.3125 11.8125 C10 12 10 12 11.8125 13 C13.73618446 16.23988962 13.18282384 19.2825819 13 23 C13.804375 23.04125 14.60875 23.0825 15.4375 23.125 C22.84627575 24.94469931 28.72782967 29.78593407 33 36 C35.37446599 41.20121122 36.14423134 46.65389647 34.27734375 52.11328125 C31.16164714 58.81139825 26.45112869 63.40225515 20 67 C7.28158548 71.56624619 -8.36056383 69.6683809 -20.4375 64.25 C-21.38496094 63.78078125 -22.33242188 63.3115625 -23.30859375 62.828125 C-26.68913832 61.78795744 -27.91244856 62.41532956 -31 64 C-32.99620166 64.67795528 -34.99538701 65.34733531 -37 66 C-38.81115956 64.18884044 -38.38199448 61.38721773 -38.5625 58.9375 C-38.64628906 57.83277344 -38.73007812 56.72804687 -38.81640625 55.58984375 C-38.87699219 54.73519531 -38.93757813 53.88054687 -39 53 C-41.475 55.475 -41.475 55.475 -44 58 C-46.31 57.34 -48.62 56.68 -51 56 C-51.66353894 52.8297584 -52.09152718 50.44746621 -51.4375 47.25 C-51.293125 46.5075 -51.14875 45.765 -51 45 C-51.66 44.34 -52.32 43.68 -53 43 C-53.125 40.375 -53.125 40.375 -53 38 C-51.3125 37.3125 -51.3125 37.3125 -49 37 C-46.25 38.4375 -46.25 38.4375 -44 40 C-44.33 41.32 -44.66 42.64 -45 44 C-41.88827398 43.27648936 -41.88827398 43.27648936 -40.35546875 40.83203125 C-38.82545874 37.63532446 -38.50621378 35.21309073 -38.3125 31.6875 C-38.24675781 30.61886719 -38.18101563 29.55023438 -38.11328125 28.44921875 C-38.07589844 27.64097656 -38.03851563 26.83273438 -38 26 C-33.25 25.8046875 -33.25 25.8046875 -31 27.5625 C-29.09788649 29.27293696 -29.09788649 29.27293696 -26.73046875 28.71875 C-23.83995228 27.95787013 -21.10557691 27.00062204 -18.3125 25.9375 C-13.21708185 24 -13.21708185 24 -11 24 C-10.896875 23.29875 -10.79375 22.5975 -10.6875 21.875 C-9.88102475 18.50246713 -8.86518266 15.93100132 -7 13 C-4.3125 12.125 -4.3125 12.125 -2 12 C-2.02320313 11.38511719 -2.04640625 10.77023438 -2.0703125 10.13671875 C-2.08835938 9.32847656 -2.10640625 8.52023438 -2.125 7.6875 C-2.14820313 6.88699219 -2.17140625 6.08648437 -2.1953125 5.26171875 C-2 3 -2 3 0 0 Z M-2 20 C-2.99 23.63 -3.98 27.26 -5 31 C-6.44375 31.2475 -7.8875 31.495 -9.375 31.75 C-17.83973435 33.45253864 -27.80632295 36.31594032 -32.875 43.75 C-33.431875 44.86375 -33.431875 44.86375 -34 46 C-29.60696132 53.0964471 -22.51664758 55.24525024 -15 58 C-14.06542969 58.34417969 -13.13085938 58.68835938 -12.16796875 59.04296875 C-2.0814584 62.26399829 9.25174733 62.75989434 18.97265625 58.21484375 C22.50253364 56.09963784 25.13195051 53.73609899 27 50 C27.55243655 45.47183152 27.38918183 41.89681031 25.5625 37.6875 C19.87994651 31.72774878 12.95616668 30.50515344 5 30 C5 26.7 5 23.4 5 20 C2.69 20 0.38 20 -2 20 Z M-43 48 C-42.34 48.66 -41.68 49.32 -41 50 C-41 49.34 -41 48.68 -41 48 C-41.66 48 -42.32 48 -43 48 Z M-41 50 C-40 52 -40 52 -40 52 Z " fill="#4CA928" transform="translate(72,11)"/>
<path d="M0 0 C0 3.3 0 6.6 0 10 C-1.98 10.99 -3.96 11.98 -6 13 C-0.52378307 14.94679922 -0.52378307 14.94679922 5 14 C4.87625 13.154375 4.7525 12.30875 4.625 11.4375 C5.15268258 6.6004097 7.38542676 4.13593112 11 1 C15.35538495 -1.17769248 18.30425297 -1.11803501 23 0 C23 3.3 23 6.6 23 10 C22.195625 10.28875 21.39125 10.5775 20.5625 10.875 C17.8673532 11.73262568 17.8673532 11.73262568 17 14 C17.804375 13.979375 18.60875 13.95875 19.4375 13.9375 C22 14 22 14 23 15 C23.09823937 16.66429051 23.12973631 18.33281931 23.125 20 C23.12886719 21.36125 23.12886719 21.36125 23.1328125 22.75 C23 25 23 25 22 26 C20.33382885 26.04063832 18.66611905 26.042721 17 26 C17.00523682 26.69150146 17.01047363 27.38300293 17.01586914 28.09545898 C17.036575 31.20946352 17.04963963 34.32345361 17.0625 37.4375 C17.07087891 38.52611328 17.07925781 39.61472656 17.08789062 40.73632812 C17.09111328 41.77080078 17.09433594 42.80527344 17.09765625 43.87109375 C17.10289307 44.82943115 17.10812988 45.78776855 17.11352539 46.77514648 C17 49 17 49 16 50 C12.37 50 8.74 50 5 50 C5 42.08 5 34.16 5 26 C-0.01822701 24.9963546 -1.46900722 25.20867727 -6 27 C-5.99214478 27.93851807 -5.99214478 27.93851807 -5.98413086 28.89599609 C-5.96338382 31.72232057 -5.95034714 34.54862905 -5.9375 37.375 C-5.92912109 38.35984375 -5.92074219 39.3446875 -5.91210938 40.359375 C-5.90727539 41.77089844 -5.90727539 41.77089844 -5.90234375 43.2109375 C-5.89448853 44.51490479 -5.89448853 44.51490479 -5.88647461 45.84521484 C-6 48 -6 48 -7 50 C-10.63 50 -14.26 50 -18 50 C-18 42.08 -18 34.16 -18 26 C-19.65 25.67 -21.3 25.34 -23 25 C-23 21.7 -23 18.4 -23 15 C-21.35 14.67 -19.7 14.34 -18 14 C-18.12375 13.154375 -18.2475 12.30875 -18.375 11.4375 C-17.84731742 6.6004097 -15.61457324 4.13593112 -12 1 C-7.64461505 -1.17769248 -4.69574703 -1.11803501 0 0 Z " fill="#4CA928" transform="translate(193,26)"/>
<path d="M0 0 C4.1606934 3.77365215 7.3046807 7.42279798 8.03125 13.14453125 C8.05959083 15.62081166 8.02230287 17.98387322 7.6875 20.4375 C6.03670558 22.08829442 4.05013821 21.66299447 1.77734375 21.75390625 C0.78798828 21.79580078 -0.20136719 21.83769531 -1.22070312 21.88085938 C-2.26162109 21.92017578 -3.30253906 21.95949219 -4.375 22 C-5.41978516 22.04318359 -6.46457031 22.08636719 -7.54101562 22.13085938 C-10.13136884 22.23731225 -12.72182186 22.3393276 -15.3125 22.4375 C-11.93913563 24.68640958 -11.26179635 24.41882299 -7.49609375 23.73046875 C-3.13224254 23.14497887 1.29312451 23.36598213 5.6875 23.4375 C6.1825 24.4275 6.1825 24.4275 6.6875 25.4375 C3.95735862 30.05773926 1.7174805 33.14312293 -3.3125 35.4375 C-9.82390547 36.43396838 -15.63499983 36.41571202 -21.375 32.9375 C-26.25031357 29.10177535 -28.82691806 25.08501082 -29.6484375 18.9140625 C-29.91139671 12.17826108 -28.40748753 8.01134182 -24.125 2.75 C-16.78818927 -3.28248883 -8.61667767 -4.0644706 0 0 Z M-13.3125 8.4375 C-14.7975 10.4175 -14.7975 10.4175 -16.3125 12.4375 C-12.3525 12.4375 -8.3925 12.4375 -4.3125 12.4375 C-4.6425 11.4475 -4.9725 10.4575 -5.3125 9.4375 C-8.14133747 8.02308126 -10.18626745 8.11849668 -13.3125 8.4375 Z " fill="#4CA928" transform="translate(162.3125,41.5625)"/>
<path d="M0 0 C3.37854325 -0.28524286 6.62804818 -0.40988069 10 0 C11.875 1.875 11.875 1.875 13 5 C13.727534 6.77150473 14.45681813 8.54229133 15.1875 10.3125 C15.79589327 11.87335914 16.40147573 13.43532997 17 15 C17.34933594 14.00097656 17.69867188 13.00195312 18.05859375 11.97265625 C18.51807919 10.66921795 18.97772279 9.3658354 19.4375 8.0625 C19.66759766 7.40314453 19.89769531 6.74378906 20.13476562 6.06445312 C21.88671875 1.11328125 21.88671875 1.11328125 23 0 C24.68608966 -0.07205511 26.37500659 -0.08386068 28.0625 -0.0625 C28.98160156 -0.05347656 29.90070313 -0.04445312 30.84765625 -0.03515625 C31.55792969 -0.02355469 32.26820313 -0.01195312 33 0 C34.69841465 5.06473351 33.12489699 8.99842757 31.5625 13.875 C31.16285034 15.16241089 31.16285034 15.16241089 30.75512695 16.47583008 C27.89521105 25.56741226 24.79382141 34.58210691 21.63671875 43.57421875 C21.34498779 44.40526123 21.05325684 45.23630371 20.75268555 46.0925293 C20 48 20 48 19 49 C16.98035801 49.07244053 14.95832876 49.08377188 12.9375 49.0625 C11.28041016 49.04896484 11.28041016 49.04896484 9.58984375 49.03515625 C8.73519531 49.02355469 7.88054687 49.01195312 7 49 C9 39 9 39 9.73046875 36.66796875 C10.12517275 32.76097123 8.74823836 29.58798302 7.375 26 C7.10228271 25.25468018 6.82956543 24.50936035 6.54858398 23.74145508 C5.23790648 20.18357592 3.87017665 16.65191324 2.44921875 13.13671875 C1.99160156 11.99847656 1.53398437 10.86023438 1.0625 9.6875 C0.64097656 8.68074219 0.21945312 7.67398438 -0.21484375 6.63671875 C-1.03475789 3.88327574 -1.01128148 2.64440686 0 0 Z " fill="#4CA928" transform="translate(271,40)"/>
<path d="M0 0 C3.3165842 2.28475801 5.70734739 4.12204217 7 8 C7.02723757 9.66644409 7.03019823 11.33360694 7 13 C5.2507786 13.08142927 3.50045458 13.13938541 1.75 13.1875 C0.77546875 13.22230469 -0.1990625 13.25710937 -1.203125 13.29296875 C-4.41330665 12.95670671 -5.56937058 12.02991828 -8 10 C-11.14484365 9.69318599 -12.97827058 9.99275686 -16 11 C-16.04125 12.258125 -16.0825 13.51625 -16.125 14.8125 C-16.14820313 15.52019531 -16.17140625 16.22789063 -16.1953125 16.95703125 C-16.13254462 19.31359719 -16.13254462 19.31359719 -14 22 C-11.79274927 22.36362818 -11.79274927 22.36362818 -9.375 22.1875 C-8.55773437 22.16042969 -7.74046875 22.13335937 -6.8984375 22.10546875 C-5.95871094 22.05326172 -5.95871094 22.05326172 -5 22 C-5 21.34 -5 20.68 -5 20 C-2.6203388 18.8101694 -1.08514265 18.86650034 1.5625 18.875 C2.77099609 18.87113281 2.77099609 18.87113281 4.00390625 18.8671875 C6 19 6 19 7 20 C7.07953102 23.97655083 6.91660963 25.97886471 4.21875 28.984375 C-1.61037994 34.09542371 -5.00105756 35.48678329 -12.81640625 35.40234375 C-17.96391734 34.7517994 -21.35149579 32.61765005 -25 29 C-28.40914602 24.59305514 -29.75059437 19.91950144 -29.43359375 14.3671875 C-28.39152021 8.67802926 -26.39127596 3.80153561 -21.6875 0.2578125 C-13.86420365 -3.96390535 -7.98255994 -4.13910515 0 0 Z " fill="#4CA928" transform="translate(263,42)"/>
<path d="M0 0 C0.9075 0.00257812 1.815 0.00515625 2.75 0.0078125 C4.11125 0.00394531 4.11125 0.00394531 5.5 0 C7.75 0.1328125 7.75 0.1328125 8.75 1.1328125 C8.85087212 3.64205403 8.88972032 6.12317634 8.8828125 8.6328125 C8.88376923 9.38369141 8.88472595 10.13457031 8.88571167 10.90820312 C8.88639338 12.49869877 8.88453972 14.08919717 8.88037109 15.6796875 C8.87502267 18.12245905 8.88031634 20.56504671 8.88671875 23.0078125 C8.88605797 24.54947957 8.8847768 26.09114653 8.8828125 27.6328125 C8.88483673 28.36822266 8.88686096 29.10363281 8.88894653 29.86132812 C8.86495161 35.01786089 8.86495161 35.01786089 7.75 36.1328125 C5.89712498 36.20507752 4.04166122 36.2166247 2.1875 36.1953125 C1.17558594 36.18628906 0.16367188 36.17726562 -0.87890625 36.16796875 C-1.66136719 36.15636719 -2.44382813 36.14476562 -3.25 36.1328125 C-3.27465098 31.16658901 -3.29283649 26.20040084 -3.30493164 21.23413086 C-3.3099719 19.54336934 -3.31680405 17.85261221 -3.32543945 16.16186523 C-3.33751857 13.73680543 -3.34323123 11.31180306 -3.34765625 8.88671875 C-3.35281754 8.12629776 -3.35797882 7.36587677 -3.36329651 6.58241272 C-3.36349238 4.7654868 -3.31197277 2.94868123 -3.25 1.1328125 C-2.25 0.1328125 -2.25 0.1328125 0 0 Z " fill="#4CA928" transform="translate(221.25,39.8671875)"/>
<path d="M0 0 C2.67372715 0.08962214 5.3232784 0.04461203 8 0 C10.33333333 0 12.66666667 0 15 0 C15.33 0.99 15.66 1.98 16 3 C16.66 2.01 17.32 1.02 18 0 C19.32 0 20.64 0 22 0 C22 3.96 22 7.92 22 12 C16.125 11.125 16.125 11.125 15 10 C14.67 10.66 14.34 11.32 14 12 C9.66666667 12 5.33333333 12 1 12 C1 11.34 1 10.68 1 10 C0.01 10.66 -0.98 11.32 -2 12 C-5.12026907 12.32502803 -7.14747535 12.51151479 -9.875 10.875 C-11.51151479 8.14747535 -11.32502803 6.12026907 -11 3 C-7.73731084 -1.89403374 -5.27713821 -0.89611781 0 0 Z M-7 4 C-7 5.32 -7 6.64 -7 8 C-5.68 8 -4.36 8 -3 8 C-3 7.34 -3 6.68 -3 6 C-1.68 5.67 -0.36 5.34 1 5 C-1.64 4.67 -4.28 4.34 -7 4 Z M9 6 C9 9 9 9 9 9 Z " fill="#4CA928" transform="translate(320,41)"/>
<path d="M0 0 C1.051875 -0.00386719 1.051875 -0.00386719 2.125 -0.0078125 C4 0.125 4 0.125 6 1.125 C6 4.425 6 7.725 6 11.125 C3.75487738 12.24756131 2.48543351 12.25913762 0 12.25 C-1.051875 12.25386719 -1.051875 12.25386719 -2.125 12.2578125 C-4 12.125 -4 12.125 -6 11.125 C-6 7.825 -6 4.525 -6 1.125 C-3.75487738 0.00243869 -2.48543351 -0.00913762 0 0 Z " fill="#4CA928" transform="translate(224,24.875)"/>
<path d="M0 0 C2.875 0.6875 2.875 0.6875 3.875 1.6875 C4.32878151 6.90598739 4.32878151 6.90598739 2.75 9.625 C0.875 10.6875 0.875 10.6875 -2.1875 10.5625 C-5.125 9.6875 -5.125 9.6875 -7.125 6.6875 C-6.9375 4.125 -6.9375 4.125 -6.125 1.6875 C-3.125 -0.3125 -3.125 -0.3125 0 0 Z " fill="#4CA928" transform="translate(120.125,53.3125)"/>
</svg>
