<?xml version="1.0" encoding="UTF-8"?>
<svg version="1.1" xmlns="http://www.w3.org/2000/svg" width="187" height="148">
<path d="M0 0 C61.71 0 123.42 0 187 0 C187 48.84 187 97.68 187 148 C125.29 148 63.58 148 0 148 C0 99.16 0 50.32 0 0 Z " fill="#FCFCFC" transform="translate(0,0)"/>
<path d="M0 0 C8.76980156 7.33034448 15.13020834 15.51831061 17 27 C17.01704952 29.83732369 16.87156305 32.66569401 16.75 35.5 C16.44987435 43.65326496 18.59296052 47.82395935 24 54 C25.7072994 56.91893123 26.81766921 59.32040344 27.6875 62.5625 C26.8199762 65.63826621 25.84519883 66.01666728 23.1875 67.6875 C21.79578533 68.46574482 20.40014007 69.23701736 19 70 C18.01 70.66 17.02 71.32 16 72 C15.67930577 75.56865553 15.61201966 79.03718199 15.6484375 82.61523438 C15.55987284 86.86264802 15.37488377 88.52485662 12.6484375 91.98046875 C7.45683701 95.93925556 1.96187615 95.20390777 -4.3359375 95.328125 C-8.93765166 96.17193613 -10.24614565 97.24385944 -13 101 C-13.59528251 102.54474761 -14.13957321 104.10987144 -14.63818359 105.68847656 C-14.89667084 106.49657776 -15.15515808 107.30467896 -15.42147827 108.13726807 C-15.70784653 109.05932037 -15.70784653 109.05932037 -16 110 C-22.24795675 110.02527124 -28.49590041 110.04283344 -34.74389648 110.05493164 C-36.87118014 110.05997298 -38.99846031 110.06680591 -41.12573242 110.07543945 C-44.17627826 110.08751379 -47.22677845 110.09323014 -50.27734375 110.09765625 C-51.71327126 110.10539818 -51.71327126 110.10539818 -53.1782074 110.11329651 C-54.05904495 110.11337204 -54.93988251 110.11344757 -55.84741211 110.11352539 C-56.62684677 110.115746 -57.40628143 110.11796661 -58.20933533 110.12025452 C-60 110 -60 110 -61 109 C-61.12153341 107.34932801 -61.17969237 105.69390755 -61.2109375 104.0390625 C-61.23929688 103.00910156 -61.26765625 101.97914063 -61.296875 100.91796875 C-61.34802797 98.76187104 -61.39255418 96.60560348 -61.4296875 94.44921875 C-61.7343436 84.17976932 -63.35143204 75.35163422 -69.4375 66.9375 C-73.13464526 61.49724508 -76.00442345 56.27901107 -78 50 C-78.29648438 49.08347656 -78.59296875 48.16695312 -78.8984375 47.22265625 C-82.48153034 35.24066231 -80.96777602 25.26181479 -75.52734375 13.93359375 C-69.01194141 2.85895005 -58.26219767 -4.90425776 -45.875 -8.3125 C-30.19273721 -11.19404652 -13.43385985 -8.76041611 0 0 Z " fill="#F9F9F9" transform="translate(86,37)"/>
<path d="M0 0 C1.11906738 0.00588135 2.23813477 0.0117627 3.39111328 0.01782227 C9.74715154 0.24519046 14.15534613 0.63666564 19.0625 4.8125 C23.28556931 9.84373642 25.25229562 15.0326034 25.984375 21.49609375 C26.45601222 23.99984795 26.45601222 23.99984795 28.54296875 25.17578125 C29.31253906 25.50964844 30.08210938 25.84351562 30.875 26.1875 C34.5876295 28.02046488 36.42563914 29.56121863 38.625 33.0625 C40.38822104 35.714824 41.25226391 36.71416615 44.27734375 37.83203125 C46.75437613 38.31493097 49.17275538 38.67620596 51.6875 38.875 C52.1825 40.855 52.1825 40.855 52.6875 42.875 C52.15640625 43.08511719 51.6253125 43.29523437 51.078125 43.51171875 C47.23585807 45.39779503 45.12587826 46.79602383 43.4765625 50.85546875 C42.86230299 53.13662908 42.25828422 55.42056941 41.6640625 57.70703125 C40.03494712 62.99188154 37.30664197 66.25977962 32.62890625 69.14453125 C25.00485023 73.10344474 16.66908096 74.62477885 8.23046875 72.15625 C3.9536252 70.12822476 0.78586237 67.47579952 -2.3125 63.875 C-2.77914062 63.36066406 -3.24578125 62.84632812 -3.7265625 62.31640625 C-7.2040989 58.11033568 -7.80485721 55.01562773 -7.48828125 49.59765625 C-7.43027344 49.02917969 -7.37226562 48.46070313 -7.3125 47.875 C-11.895619 45.90637158 -11.895619 45.90637158 -16.67578125 46.6328125 C-18.23370131 47.36205168 -19.77572547 48.1265631 -21.296875 48.9296875 C-23.3125 49.875 -23.3125 49.875 -26.3125 49.875 C-25.68267995 43.45083548 -25.68267995 43.45083548 -23.625 40.25 C-21.96600472 37.90359649 -21.96600472 37.90359649 -23.0625 35.1875 C-23.475 34.424375 -23.8875 33.66125 -24.3125 32.875 C-26.77403991 27.95192018 -25.86909454 21.23757434 -25.3125 15.875 C-23.17959904 9.94858233 -19.7153913 5.43849323 -14.51831055 1.89599609 C-9.91738952 -0.23361672 -4.98647052 -0.03564389 0 0 Z " fill="#0D0D0D" transform="translate(127.3125,-0.875)"/>
<path d="M0 0 C6.24647339 6.24647339 9.38052801 12.20352509 9.4375 21 C9.30290979 31.08203023 6.81085462 37.44867599 -0.1953125 44.7578125 C-7.16664185 51.11962672 -14.36315683 51.76857258 -23.4140625 51.52734375 C-31.72736417 50.83619104 -37.13254563 47.35291339 -42.75 41.25 C-48.28469401 34.65547097 -49.49563359 29.05903119 -49.0703125 20.515625 C-48.19927458 11.63528723 -45.61369338 5.31356637 -38.63671875 -0.515625 C-25.65601773 -9.75232417 -12.98568399 -8.26361708 0 0 Z " fill="#F6F6F6" transform="translate(71.75,49.75)"/>
<path d="M0 0 C1.87036133 0.84033203 1.87036133 0.84033203 3.87036133 2.84033203 C11.64403101 4.39506597 19.15978989 3.59133829 26.87036133 1.84033203 C27.53036133 1.18033203 28.19036133 0.52033203 28.87036133 -0.15966797 C32.7220428 0.09538677 34.58951588 2.21061133 37.19848633 4.87548828 C37.99770508 5.684375 38.79692383 6.49326172 39.62036133 7.32666016 C40.44536133 8.17679688 41.27036133 9.02693359 42.12036133 9.90283203 C43.38106445 11.18383789 43.38106445 11.18383789 44.66723633 12.49072266 C46.7418373 14.60068615 48.80911965 16.71732911 50.87036133 18.84033203 C49.36024171 22.02918889 47.7491099 24.09688695 45.24536133 26.59033203 C42.61543934 29.40754167 42.61543934 29.40754167 41.58911133 32.99658203 C41.64067383 33.68751953 41.69223633 34.37845703 41.74536133 35.09033203 C41.78661133 36.32783203 41.82786133 37.56533203 41.87036133 38.84033203 C39.62036133 41.02783203 39.62036133 41.02783203 36.87036133 42.84033203 C36.21036133 43.68595703 35.55036133 44.53158203 34.87036133 45.40283203 C32.72725292 48.01474541 30.80846941 49.22437259 27.87036133 50.84033203 C27.05438477 51.61570312 27.05438477 51.61570312 26.22192383 52.40673828 C22.8370544 54.47027164 19.58516026 54.23869516 15.74536133 54.15283203 C14.65288086 54.15766602 14.65288086 54.15766602 13.53833008 54.16259766 C8.13772244 54.10769314 8.13772244 54.10769314 5.87036133 51.84033203 C3.88312865 51.13652046 1.8825818 50.46915093 -0.12963867 49.84033203 C-0.78963867 49.51033203 -1.44963867 49.18033203 -2.12963867 48.84033203 C-2.12963867 48.18033203 -2.12963867 47.52033203 -2.12963867 46.84033203 C-2.72776367 46.75783203 -3.32588867 46.67533203 -3.94213867 46.59033203 C-6.77989278 45.61738777 -7.62639934 44.3958389 -9.12963867 41.84033203 C-9.12963867 40.85033203 -9.12963867 39.86033203 -9.12963867 38.84033203 C-9.77030273 38.59798828 -10.4109668 38.35564453 -11.07104492 38.10595703 C-13.12963867 36.84033203 -13.12963867 36.84033203 -13.78198242 34.88720703 C-13.87608398 34.12923828 -13.97018555 33.37126953 -14.06713867 32.59033203 C-14.67226772 29.09403084 -15.37090517 27.17097397 -17.81713867 24.59033203 C-20.12963867 21.84033203 -20.12963867 21.84033203 -20.00390625 19.43359375 C-18.36968689 14.58615503 -14.39142517 11.48969013 -10.81713867 7.96533203 C-10.0443457 7.16869141 -9.27155273 6.37205078 -8.4753418 5.55126953 C-7.72575195 4.80361328 -6.97616211 4.05595703 -6.20385742 3.28564453 C-5.5189624 2.60002441 -4.83406738 1.9144043 -4.12841797 1.20800781 C-2.12963867 -0.15966797 -2.12963867 -0.15966797 0 0 Z " fill="#0B0B0B" transform="translate(131.129638671875,94.15966796875)"/>
<path d="M0 0 C8.76980156 7.33034448 15.13020834 15.51831061 17 27 C17.01704952 29.83732369 16.87156305 32.66569401 16.75 35.5 C16.44987435 43.65326496 18.59296052 47.82395935 24 54 C25.7072994 56.91893123 26.81766921 59.32040344 27.6875 62.5625 C26.8199762 65.63826621 25.84519883 66.01666728 23.1875 67.6875 C21.79578533 68.46574482 20.40014007 69.23701736 19 70 C18.01 70.66 17.02 71.32 16 72 C15.67930577 75.56865553 15.61201966 79.03718199 15.6484375 82.61523438 C15.55987284 86.86264802 15.37488377 88.52485662 12.6484375 91.98046875 C7.45683701 95.93925556 1.96187615 95.20390777 -4.3359375 95.328125 C-8.93765166 96.17193613 -10.24614565 97.24385944 -13 101 C-13.59528251 102.54474761 -14.13957321 104.10987144 -14.63818359 105.68847656 C-14.89667084 106.49657776 -15.15515808 107.30467896 -15.42147827 108.13726807 C-15.70784653 109.05932037 -15.70784653 109.05932037 -16 110 C-22.24795675 110.02527124 -28.49590041 110.04283344 -34.74389648 110.05493164 C-36.87118014 110.05997298 -38.99846031 110.06680591 -41.12573242 110.07543945 C-44.17627826 110.08751379 -47.22677845 110.09323014 -50.27734375 110.09765625 C-51.71327126 110.10539818 -51.71327126 110.10539818 -53.1782074 110.11329651 C-54.05904495 110.11337204 -54.93988251 110.11344757 -55.84741211 110.11352539 C-56.62684677 110.115746 -57.40628143 110.11796661 -58.20933533 110.12025452 C-60 110 -60 110 -61 109 C-61.12153341 107.34932801 -61.17969237 105.69390755 -61.2109375 104.0390625 C-61.23929688 103.00910156 -61.26765625 101.97914063 -61.296875 100.91796875 C-61.34802797 98.76187104 -61.39255418 96.60560348 -61.4296875 94.44921875 C-61.7343436 84.17976932 -63.35143204 75.35163422 -69.4375 66.9375 C-73.13464526 61.49724508 -76.00442345 56.27901107 -78 50 C-78.29648438 49.08347656 -78.59296875 48.16695312 -78.8984375 47.22265625 C-82.48153034 35.24066231 -80.96777602 25.26181479 -75.52734375 13.93359375 C-69.01194141 2.85895005 -58.26219767 -4.90425776 -45.875 -8.3125 C-30.19273721 -11.19404652 -13.43385985 -8.76041611 0 0 Z M-68 11 C-71.96941595 17.06317381 -75.14905721 22.73862155 -76 30 C-76.18755859 31.51013672 -76.18755859 31.51013672 -76.37890625 33.05078125 C-77.09278314 45.73348762 -71.74144276 56.23974242 -64.25 66.25 C-55.76766283 77.8502739 -56.35580125 91.21270149 -56 105 C-43.79 105 -31.58 105 -19 105 C-18.34 102.36 -17.68 99.72 -17 97 C-13.88550529 93.42915183 -11.51123889 91.77270724 -6.8359375 91.43359375 C-5.34912541 91.4112653 -3.86177753 91.4129785 -2.375 91.4375 C3.29382544 91.55031593 3.29382544 91.55031593 8.49609375 89.50390625 C10.98594342 85.35846822 10.47600335 80.88720743 10.40039062 76.19921875 C10.48458877 70.54308431 10.48458877 70.54308431 13.328125 67.546875 C16.15803428 65.90850647 18.85492056 64.87769659 22 64 C21.56778398 58.68767214 19.83358056 56.26789812 16.4375 52.25 C10.6702158 44.791657 11.50361371 37.94897489 11.96191406 28.93505859 C12.13070121 20.3593731 6.44603102 13.13154541 1 7 C-11.12122339 -3.55156856 -26.00344041 -5.0203538 -41.40039062 -4.26074219 C-51.95950852 -3.20165711 -61.30674854 2.97286213 -68 11 Z " fill="#0D0D0D" transform="translate(86,37)"/>
<path d="M0 0 C5.14958923 3.03209404 10.71644605 7.37486569 12.30078125 13.35546875 C12.5859375 15.56640625 12.5859375 15.56640625 12.7109375 19.12890625 C12.09347656 19.14308594 11.47601563 19.15726563 10.83984375 19.171875 C2.39733513 19.6473283 -3.91292105 22.25388978 -9.7265625 28.50390625 C-12.39941311 31.87273459 -13.43444075 34.94125969 -14.2890625 39.12890625 C-14.98773438 39.05671875 -15.68640625 38.98453125 -16.40625 38.91015625 C-17.77136719 38.7709375 -17.77136719 38.7709375 -19.1640625 38.62890625 C-20.06898437 38.53609375 -20.97390625 38.44328125 -21.90625 38.34765625 C-24.22219461 38.0984333 -24.22219461 38.0984333 -26.2890625 38.12890625 C-26.0621875 37.26265625 -25.8353125 36.39640625 -25.6015625 35.50390625 C-24.96753271 32.13397682 -24.96753271 32.13397682 -26.7265625 29.56640625 C-29.39197865 23.70249072 -29.60482976 16.78966317 -27.41015625 10.68359375 C-21.86206642 1.05225629 -10.76749386 -4.09752753 0 0 Z " fill="#F7F7F7" transform="translate(135.2890625,2.87109375)"/>
<path d="M0 0 C5.89073285 1.2622999 8.66496054 4.238528 12 9 C12.48726562 10.04027344 12.48726562 10.04027344 12.984375 11.1015625 C13.98489494 13.33081739 13.98489494 13.33081739 17 15 C16.01 15.33 15.02 15.66 14 16 C14.12375 17.299375 14.2475 18.59875 14.375 19.9375 C14.36557827 25.92029769 11.8177704 29.57446794 8 34 C7.52820313 34.55300781 7.05640625 35.10601562 6.5703125 35.67578125 C1.76553038 40.09468708 -4.17332623 39.70993446 -10.39453125 39.4765625 C-16.38863959 38.68427516 -19.75509238 36.69278327 -23.5859375 32.09765625 C-26.39627625 28.05294219 -27.62990732 25.03925855 -27 20 C-26.29875 19.91363281 -25.5975 19.82726562 -24.875 19.73828125 C-16.77638554 18.53889405 -10.74445795 16.29206906 -5.1875 10.125 C-2.85211634 6.78873762 -1.44049863 3.79078586 0 0 Z " fill="#F9F9F9" transform="translate(152,28)"/>
<path d="M0 0 C6.24647339 6.24647339 9.38052801 12.20352509 9.4375 21 C9.30290979 31.08203023 6.81085462 37.44867599 -0.1953125 44.7578125 C-7.16664185 51.11962672 -14.36315683 51.76857258 -23.4140625 51.52734375 C-31.72736417 50.83619104 -37.13254563 47.35291339 -42.75 41.25 C-48.28469401 34.65547097 -49.49563359 29.05903119 -49.0703125 20.515625 C-48.19927458 11.63528723 -45.61369338 5.31356637 -38.63671875 -0.515625 C-25.65601773 -9.75232417 -12.98568399 -8.26361708 0 0 Z M-39.125 6.625 C-43.45320279 12.21559528 -45.38713266 17.56454865 -45.171875 24.625 C-44.41082987 29.36039192 -42.23019591 33.20070056 -39.75 37.25 C-38.9146875 38.6421875 -38.9146875 38.6421875 -38.0625 40.0625 C-33.11329715 44.74417837 -27.35687492 47.54249056 -20.5 47.6875 C-12.29013805 47.21286736 -6.13867436 44.04429764 -0.5625 38 C3.86419865 32.53924313 5.94048916 26.67035752 5.66015625 19.61328125 C4.43311821 12.54320494 0.70484719 6.9545152 -4.80859375 2.50390625 C-16.54129516 -5.07395522 -29.66867035 -3.59244887 -39.125 6.625 Z " fill="#0B0B0B" transform="translate(71.75,49.75)"/>
<path d="M0 0 C0 0.66 0 1.32 0 2 C2.97 2.495 2.97 2.495 6 3 C4.75453595 6.73639216 3.36595047 7.18756513 0 9 C0.57452746 12.93075644 0.57452746 12.93075644 3 16 C7.06179881 16.6037809 10.82394506 16.81670482 14.25 14.4375 C14.8275 13.963125 15.405 13.48875 16 13 C20.04404097 13.33897906 21.9844916 14.49699565 24.76953125 17.37890625 C25.76049805 18.38920898 25.76049805 18.38920898 26.77148438 19.41992188 C27.44501953 20.12697266 28.11855469 20.83402344 28.8125 21.5625 C29.50537109 22.27341797 30.19824219 22.98433594 30.91210938 23.71679688 C32.6174517 25.46918312 34.31275176 27.23021469 36 29 C35.505 30.485 35.505 30.485 35 32 C31.17216185 30.44051038 28.88905687 27.88905687 26 25 C25.34 25 24.68 25 24 25 C24.36262225 28.26360025 25.13266674 29.12943096 27.5625 31.5 C30 34 30 34 30 38 C26.83884224 36.63016497 26.0072908 36.0109362 24 33 C23.01 33 22.02 33 21 33 C21.57344937 35.86724686 21.8614515 36.8614515 24 39 C24 39.99 24 40.98 24 42 C23.01 42.33 22.02 42.66 21 43 C20.773125 42.113125 20.54625 41.22625 20.3125 40.3125 C18.44178565 35.59117332 15.40511492 33.12409193 11.5 30 C7.86766946 27.09413557 4.74550479 24.05813584 2.0625 20.25 C0.12076292 17.76209903 0.12076292 17.76209903 -3.0625 17 C-5.99676942 16.68252163 -5.99676942 16.68252163 -7.6875 18.4375 C-8.120625 18.953125 -8.55375 19.46875 -9 20 C-9.99 20 -10.98 20 -12 20 C-13.8125 17.75 -13.8125 17.75 -15 15 C-13.69100897 10.92367893 -10.47757841 8.18141441 -7.5 5.25 C-7.00113281 4.74339844 -6.50226563 4.23679687 -5.98828125 3.71484375 C-2.25341139 0 -2.25341139 0 0 0 Z " fill="#EEEEEE" transform="translate(132,100)"/>
<path d="M0 0 C3.73867071 3.12827549 7.43269846 6.30173921 11 9.625 C11.598125 10.17414063 12.19625 10.72328125 12.8125 11.2890625 C14 13 14 13 13.84765625 15.0390625 C12.56319902 18.01047969 10.34996687 19.83079981 8 22 C3.71325087 20.1628218 1.15122291 17.22317434 -2 13.875 C-5.12859713 10.94194019 -7.21967057 10.06967227 -11.5 9.6875 C-15.29110263 10.02599131 -16.11195416 10.78583153 -19 13 C-21.75 12.6875 -21.75 12.6875 -24 12 C-23.34 11.01 -22.68 10.02 -22 9 C-21.34 9 -20.68 9 -20 9 C-19.7525 8.401875 -19.505 7.80375 -19.25 7.1875 C-17.7523364 4.5665887 -16.59298215 3.55405775 -14 2 C-10.80078125 1.5234375 -10.80078125 1.5234375 -7.3125 1.375 C-3.33829541 1.54524108 -3.33829541 1.54524108 0 0 Z " fill="#F3F3F3" transform="translate(161,100)"/>
<path d="M0 0 C-0.49269082 4.48175339 -1.96562248 6.47831591 -5.11328125 9.64453125 C-5.94923828 10.48564453 -6.78519531 11.32675781 -7.64648438 12.19335938 C-8.52626953 13.05767578 -9.40605469 13.92199219 -10.3125 14.8125 C-11.18068359 15.69615234 -12.04886719 16.57980469 -12.94335938 17.49023438 C-13.78318359 18.32490234 -14.62300781 19.15957031 -15.48828125 20.01953125 C-16.25696533 20.78370361 -17.02564941 21.54787598 -17.81762695 22.33520508 C-20 24 -20 24 -24 24 C-25.01034498 22.25595212 -26.00792422 20.50450439 -27 18.75 C-27.556875 17.77546875 -28.11375 16.8009375 -28.6875 15.796875 C-30 13 -30 13 -30 9 C-28.25 9.125 -28.25 9.125 -26 10 C-23.75 13.0625 -23.75 13.0625 -22 16 C-18.95930793 14.64940938 -16.95776246 13.16348472 -14.6875 10.7421875 C-13.78644531 9.80439453 -13.78644531 9.80439453 -12.8671875 8.84765625 C-11.61849002 7.52842564 -10.37371196 6.2054745 -9.1328125 4.87890625 C-8.53210938 4.25628906 -7.93140625 3.63367187 -7.3125 2.9921875 C-6.77238281 2.41839355 -6.23226562 1.84459961 -5.67578125 1.25341797 C-4 0 -4 0 0 0 Z " fill="#0E0E0E" transform="translate(67,59)"/>
<path d="M0 0 C1.216875 0.04125 2.43375 0.0825 3.6875 0.125 C3.23619404 5.08936557 1.07312187 8.58853359 -2.3125 12.125 C-7.49970747 15.91565161 -12.00926034 16.5752314 -18.3125 16.125 C-17.79481657 11.82365971 -16.44844941 9.63265827 -13.5625 6.4375 C-12.88703125 5.67050781 -12.2115625 4.90351563 -11.515625 4.11328125 C-7.98773451 0.92942264 -4.71147621 -0.15971106 0 0 Z " fill="#F4F4F4" transform="translate(143.3125,26.875)"/>
<path d="M0 0 C-0.47202486 4.24822374 -2.96655518 6.19989709 -6 9 C-6.99 8.67 -7.98 8.34 -9 8 C-7.13554727 3.64961029 -5.02378599 0 0 0 Z " fill="#E0E0E0" transform="translate(136,127)"/>
<path d="M0 0 C-0.54226981 3.79588866 -2.20127563 5.47211993 -5 8 C-5.99 7.67 -6.98 7.34 -8 7 C-6.13932792 2.84926997 -4.83061881 0 0 0 Z " fill="#E0E0E0" transform="translate(142,133)"/>
<path d="M0 0 C0.99 0.33 1.98 0.66 3 1 C2.67 1.99 2.34 2.98 2 4 C1.34 4 0.68 4 0 4 C-0.66 5.32 -1.32 6.64 -2 8 C-3.32 7.67 -4.64 7.34 -6 7 C-6 6.34 -6 5.68 -6 5 C-3.1875 2.3125 -3.1875 2.3125 0 0 Z " fill="#DADADA" transform="translate(128,121)"/>
<path d="M0 0 C0.99 0 1.98 0 3 0 C2 2 1 4 0 6 C-0.99 6 -1.98 6 -3 6 C-2.42655063 3.13275314 -2.1385485 2.1385485 0 0 Z " fill="#E8E8E8" transform="translate(145,139)"/>
</svg>
